<?xml version="1.0" encoding="UTF-8" standalone="no"?>
<!DOCTYPE svg PUBLIC "-//W3C//DTD SVG 1.1//EN"
 "http://www.w3.org/Graphics/SVG/1.1/DTD/svg11.dtd">
<!-- Generated by graphviz version 2.43.0 (0)
 -->
<!-- Title: bat_4b Pages: 1 -->
<svg width="683pt" height="531pt"
 viewBox="0.00 0.00 682.96 530.80" xmlns="http://www.w3.org/2000/svg" xmlns:xlink="http://www.w3.org/1999/xlink">
<g id="graph0" class="graph" transform="scale(1 1) rotate(0) translate(36 494.8)">
<title>bat_4b</title>
<polygon fill="white" stroke="transparent" points="-36,36 -36,-494.8 646.96,-494.8 646.96,36 -36,36"/>
<text text-anchor="start" x="283.48" y="-444.6" font-family="Arial" font-weight="bold" font-size="14.00">bat_4b</text>
<!-- bus_1 -->
<g id="node1" class="node">
<title>bus_1</title>
<g id="a_node1"><a xlink:title="Bus uid=1 name=b1">
<polygon fill="#d6eaf8" stroke="transparent" points="144.56,-200.08 144.56,-225.08 170.56,-225.08 170.56,-200.08 144.56,-200.08"/>
<polygon fill="none" stroke="#1a5276" points="144.56,-199.58 144.56,-224.58 170.56,-224.58 170.56,-199.58 144.56,-199.58"/>
<text text-anchor="start" x="151.56" y="-210.58" font-family="Arial" font-weight="bold" font-size="10.00">b1</text>
</a>
</g>
</g>
<!-- bus_2 -->
<g id="node2" class="node">
<title>bus_2</title>
<g id="a_node2"><a xlink:title="Bus uid=2 name=b2">
<polygon fill="#d6eaf8" stroke="transparent" points="222.41,-239.26 222.41,-264.26 248.41,-264.26 248.41,-239.26 222.41,-239.26"/>
<polygon fill="none" stroke="#1a5276" points="222.41,-238.76 222.41,-263.76 248.41,-263.76 248.41,-238.76 222.41,-238.76"/>
<text text-anchor="start" x="229.41" y="-249.76" font-family="Arial" font-weight="bold" font-size="10.00">b2</text>
</a>
</g>
</g>
<!-- bus_1&#45;&gt;bus_2 -->
<g id="edge8" class="edge">
<title>bus_1&#45;&gt;bus_2</title>
<path fill="none" stroke="#2c3e50" stroke-width="4" d="M178.05,-230.77C184.86,-235.1 193.22,-238.4 208.36,-243.3"/>
<text text-anchor="middle" x="167.08" y="-259.62" font-family="Arial" font-size="9.00">l1_2</text>
<text text-anchor="middle" x="167.08" y="-249.62" font-family="Arial" font-size="9.00">x=0.02 p.u.</text>
<text text-anchor="middle" x="167.08" y="-239.62" font-family="Arial" font-size="9.00">300 MW</text>
</g>
<!-- bus_3 -->
<g id="node3" class="node">
<title>bus_3</title>
<g id="a_node3"><a xlink:title="Bus uid=3 name=b3">
<polygon fill="#d6eaf8" stroke="transparent" points="286.66,-200.36 286.66,-225.36 312.66,-225.36 312.66,-200.36 286.66,-200.36"/>
<polygon fill="none" stroke="#1a5276" points="286.66,-199.86 286.66,-224.86 312.66,-224.86 312.66,-199.86 286.66,-199.86"/>
<text text-anchor="start" x="293.66" y="-210.86" font-family="Arial" font-weight="bold" font-size="10.00">b3</text>
</a>
</g>
</g>
<!-- bus_1&#45;&gt;bus_3 -->
<g id="edge9" class="edge">
<title>bus_1&#45;&gt;bus_3</title>
<path fill="none" stroke="#2c3e50" stroke-width="4" d="M184.85,-211.55C204.03,-211.03 220.96,-211.25 272.45,-212.3"/>
<text text-anchor="middle" x="239.53" y="-204.14" font-family="Arial" font-size="9.00">l1_3</text>
<text text-anchor="middle" x="239.53" y="-194.14" font-family="Arial" font-size="9.00">x=0.02 p.u.</text>
<text text-anchor="middle" x="239.53" y="-184.14" font-family="Arial" font-size="9.00">300 MW</text>
</g>
<!-- bus_2&#45;&gt;bus_3 -->
<g id="edge10" class="edge">
<title>bus_2&#45;&gt;bus_3</title>
<path fill="none" stroke="#2c3e50" stroke-width="3" d="M261.5,-233.66C264.56,-231.89 268.14,-229.89 272.5,-227.51"/>
<text text-anchor="middle" x="289.51" y="-253.61" font-family="Arial" font-size="9.00">l2_3</text>
<text text-anchor="middle" x="289.51" y="-243.61" font-family="Arial" font-size="9.00">x=0.03 p.u.</text>
<text text-anchor="middle" x="289.51" y="-233.61" font-family="Arial" font-size="9.00">200 MW</text>
</g>
<!-- bus_4 -->
<g id="node4" class="node">
<title>bus_4</title>
<g id="a_node4"><a xlink:title="Bus uid=4 name=b4">
<polygon fill="#d6eaf8" stroke="transparent" points="317.21,-120.2 317.21,-145.2 343.21,-145.2 343.21,-120.2 317.21,-120.2"/>
<polygon fill="none" stroke="#1a5276" points="317.21,-119.7 317.21,-144.7 343.21,-144.7 343.21,-119.7 317.21,-119.7"/>
<text text-anchor="start" x="324.21" y="-130.7" font-family="Arial" font-weight="bold" font-size="10.00">b4</text>
</a>
</g>
</g>
<!-- bus_2&#45;&gt;bus_4 -->
<g id="edge11" class="edge">
<title>bus_2&#45;&gt;bus_4</title>
<path fill="none" stroke="#2c3e50" stroke-width="3" d="M241.49,-233.5C259.43,-180.11 265.91,-169.17 303.13,-147.68"/>
<text text-anchor="middle" x="242.08" y="-171.43" font-family="Arial" font-size="9.00">l2_4</text>
<text text-anchor="middle" x="242.08" y="-161.43" font-family="Arial" font-size="9.00">x=0.02 p.u.</text>
<text text-anchor="middle" x="242.08" y="-151.43" font-family="Arial" font-size="9.00">200 MW</text>
</g>
<!-- bus_3&#45;&gt;bus_4 -->
<g id="edge12" class="edge">
<title>bus_3&#45;&gt;bus_4</title>
<path fill="none" stroke="#2c3e50" stroke-width="2.5" d="M305.63,-194.82C313.75,-170.34 317.28,-160.21 321.31,-151.04"/>
<text text-anchor="middle" x="338.01" y="-189.99" font-family="Arial" font-size="9.00">l3_4</text>
<text text-anchor="middle" x="338.01" y="-179.99" font-family="Arial" font-size="9.00">x=0.03 p.u.</text>
<text text-anchor="middle" x="338.01" y="-169.99" font-family="Arial" font-size="9.00">150 MW</text>
</g>
<!-- dem_1 -->
<g id="node9" class="node">
<title>dem_1</title>
<g id="a_node9"><a xlink:title="Demand uid=1 name=d3 lmax=30.0…200.0">
<polygon fill="#fadbd8" stroke="transparent" points="214.56,-68.7 214.56,-102.7 302.56,-102.7 302.56,-68.7 214.56,-68.7"/>
<polygon fill="none" stroke="#c0392b" points="214.56,-68.7 214.56,-102.7 302.56,-102.7 302.56,-68.7 214.56,-68.7"/>
<text text-anchor="start" x="252.56" y="-88.7" font-family="Arial" font-weight="bold" font-size="10.00">d3</text>
<text text-anchor="start" x="221.56" y="-78.7" font-family="Arial" font-weight="bold" font-size="10.00">30.0…200.0 MW</text>
</a>
</g>
</g>
<!-- bus_3&#45;&gt;dem_1 -->
<g id="edge5" class="edge">
<title>bus_3&#45;&gt;dem_1</title>
<path fill="none" stroke="#c0392b" stroke-width="1.5" d="M293.43,-194.56C278.31,-150.12 272.43,-132.66 267.6,-116.85"/>
<polygon fill="#c0392b" stroke="#c0392b" stroke-width="1.5" points="270.87,-115.57 264.65,-106.99 264.16,-117.57 270.87,-115.57"/>
</g>
<!-- dem_3 -->
<g id="node11" class="node">
<title>dem_3</title>
<g id="a_node11"><a xlink:title="Demand uid=3 name=d_bat_in lmax=60">
<polygon fill="#fadbd8" stroke="transparent" points="343.8,-305.39 343.8,-339.39 397.8,-339.39 397.8,-305.39 343.8,-305.39"/>
<polygon fill="none" stroke="#c0392b" points="343.8,-305.39 343.8,-339.39 397.8,-339.39 397.8,-305.39 343.8,-305.39"/>
<text text-anchor="start" x="350.8" y="-325.39" font-family="Arial" font-weight="bold" font-size="10.00">d_bat_in</text>
<text text-anchor="start" x="354.8" y="-315.39" font-family="Arial" font-weight="bold" font-size="10.00">60 MW</text>
</a>
</g>
</g>
<!-- bus_3&#45;&gt;dem_3 -->
<g id="edge7" class="edge">
<title>bus_3&#45;&gt;dem_3</title>
<path fill="none" stroke="#c0392b" stroke-width="1.5" d="M303.31,-231.08C308.94,-257.05 314.55,-267.08 341.39,-293.87"/>
<polygon fill="#c0392b" stroke="#c0392b" stroke-width="1.5" points="339.1,-296.53 348.68,-301.06 344.02,-291.55 339.1,-296.53"/>
</g>
<!-- dem_2 -->
<g id="node10" class="node">
<title>dem_2</title>
<g id="a_node10"><a xlink:title="Demand uid=2 name=d4 lmax=20.0…130.0">
<polygon fill="#fadbd8" stroke="transparent" points="342.74,-4 342.74,-38 430.74,-38 430.74,-4 342.74,-4"/>
<polygon fill="none" stroke="#c0392b" points="342.74,-4 342.74,-38 430.74,-38 430.74,-4 342.74,-4"/>
<text text-anchor="start" x="380.74" y="-24" font-family="Arial" font-weight="bold" font-size="10.00">d4</text>
<text text-anchor="start" x="349.74" y="-14" font-family="Arial" font-weight="bold" font-size="10.00">20.0…130.0 MW</text>
</a>
</g>
</g>
<!-- bus_4&#45;&gt;dem_2 -->
<g id="edge6" class="edge">
<title>bus_4&#45;&gt;dem_2</title>
<path fill="none" stroke="#c0392b" stroke-width="1.5" d="M338.8,-114.34C355.18,-79.35 362.67,-63.57 369.43,-50.9"/>
<polygon fill="#c0392b" stroke="#c0392b" stroke-width="1.5" points="372.57,-52.45 374.33,-42 366.44,-49.07 372.57,-52.45"/>
</g>
<!-- gen_1 -->
<g id="node5" class="node">
<title>gen_1</title>
<g id="a_node5"><a xlink:title="Generator uid=1 pmax=250 gcost=20">
<polygon fill="#fef9e7" stroke="transparent" points="4,-264.36 4,-298.36 107,-298.36 107,-264.36 4,-264.36"/>
<polygon fill="none" stroke="#e67e22" points="4.5,-264.36 4.5,-298.36 107.5,-298.36 107.5,-264.36 4.5,-264.36"/>
<text text-anchor="start" x="50" y="-284.36" font-family="Arial" font-weight="bold" font-size="10.00">g1</text>
<text text-anchor="start" x="11.5" y="-274.36" font-family="Arial" font-weight="bold" font-size="10.00">250 MW &#160;20 $/MWh</text>
</a>
</g>
</g>
<!-- gen_1&#45;&gt;bus_1 -->
<g id="edge1" class="edge">
<title>gen_1&#45;&gt;bus_1</title>
<path fill="none" stroke="#e67e22" stroke-width="1.5" d="M74.87,-260.25C84.95,-250.8 95.97,-244.04 121.33,-230.94"/>
<polygon fill="#e67e22" stroke="#e67e22" stroke-width="1.5" points="123.2,-233.92 130.5,-226.24 120.01,-227.69 123.2,-233.92"/>
</g>
<!-- gen_2 -->
<g id="node6" class="node">
<title>gen_2</title>
<g id="a_node6"><a xlink:title="Generator uid=2 pmax=150 gcost=40">
<polygon fill="#fef9e7" stroke="transparent" points="144.12,-357.2 144.12,-391.2 247.12,-391.2 247.12,-357.2 144.12,-357.2"/>
<polygon fill="none" stroke="#e67e22" points="144.62,-357.2 144.62,-391.2 247.62,-391.2 247.62,-357.2 144.62,-357.2"/>
<text text-anchor="start" x="190.12" y="-377.2" font-family="Arial" font-weight="bold" font-size="10.00">g2</text>
<text text-anchor="start" x="151.62" y="-367.2" font-family="Arial" font-weight="bold" font-size="10.00">150 MW &#160;40 $/MWh</text>
</a>
</g>
</g>
<!-- gen_2&#45;&gt;bus_2 -->
<g id="edge2" class="edge">
<title>gen_2&#45;&gt;bus_2</title>
<path fill="none" stroke="#e67e22" stroke-width="1.5" d="M196.98,-352.88C198.93,-332.48 203.45,-320.22 222.52,-279.25"/>
<polygon fill="#e67e22" stroke="#e67e22" stroke-width="1.5" points="225.75,-280.59 226.82,-270.05 219.41,-277.63 225.75,-280.59"/>
</g>
<!-- gen_3 -->
<g id="node7" class="node">
<title>gen_3</title>
<g id="a_node7"><a xlink:title="Generator uid=3 pmax=90 gcost=0">
<polygon fill="#fdebd0" stroke="transparent" points="22.02,-114.87 22.02,-148.87 115.02,-148.87 115.02,-114.87 22.02,-114.87"/>
<polygon fill="none" stroke="#f39c12" points="22.52,-114.87 22.52,-148.87 115.52,-148.87 115.52,-114.87 22.52,-114.87"/>
<text text-anchor="start" x="51.52" y="-134.87" font-family="Arial" font-weight="bold" font-size="10.00">g_solar</text>
<text text-anchor="start" x="29.52" y="-124.87" font-family="Arial" font-weight="bold" font-size="10.00">90 MW &#160;0 $/MWh</text>
</a>
</g>
</g>
<!-- gen_3&#45;&gt;bus_1 -->
<g id="edge3" class="edge">
<title>gen_3&#45;&gt;bus_1</title>
<path fill="none" stroke="#f39c12" stroke-width="1.5" d="M81.98,-152.97C90.57,-164.84 99.56,-172.67 122.35,-188.57"/>
<polygon fill="#f39c12" stroke="#f39c12" stroke-width="1.5" points="120.41,-191.48 130.62,-194.29 124.39,-185.73 120.41,-191.48"/>
</g>
<!-- gen_4 -->
<g id="node8" class="node">
<title>gen_4</title>
<g id="a_node8"><a xlink:title="Generator uid=4 pmax=60 gcost=0">
<polygon fill="#fef9e7" stroke="transparent" points="379.57,-220.11 379.57,-254.11 472.57,-254.11 472.57,-220.11 379.57,-220.11"/>
<polygon fill="none" stroke="#e67e22" points="380.07,-220.11 380.07,-254.11 473.07,-254.11 473.07,-220.11 380.07,-220.11"/>
<text text-anchor="start" x="403.57" y="-240.11" font-family="Arial" font-weight="bold" font-size="10.00">g_bat_out</text>
<text text-anchor="start" x="387.07" y="-230.11" font-family="Arial" font-weight="bold" font-size="10.00">60 MW &#160;0 $/MWh</text>
</a>
</g>
</g>
<!-- gen_4&#45;&gt;bus_3 -->
<g id="edge4" class="edge">
<title>gen_4&#45;&gt;bus_3</title>
<path fill="none" stroke="#e67e22" stroke-width="1.5" d="M376.56,-216.04C359.69,-209.58 349,-207.15 337.22,-207.36"/>
<polygon fill="#e67e22" stroke="#e67e22" stroke-width="1.5" points="336.62,-203.89 326.91,-208.12 337.14,-210.87 336.62,-203.89"/>
</g>
<!-- conv_1 -->
<g id="node13" class="node">
<title>conv_1</title>
<g id="a_node13"><a xlink:title="Converter uid=1 cap=60">
<polygon fill="#d6eaf8" stroke="transparent" points="464.81,-319.8 464.81,-353.8 510.81,-353.8 510.81,-319.8 464.81,-319.8"/>
<polygon fill="none" stroke="#1f618d" points="464.81,-319.8 464.81,-353.8 510.81,-353.8 510.81,-319.8 464.81,-319.8"/>
<text text-anchor="start" x="473.81" y="-339.8" font-family="Arial" font-weight="bold" font-size="10.00">conv1</text>
<text text-anchor="start" x="471.81" y="-329.8" font-family="Arial" font-weight="bold" font-size="10.00">60 MW</text>
</a>
</g>
</g>
<!-- dem_3&#45;&gt;conv_1 -->
<g id="edge15" class="edge">
<title>dem_3&#45;&gt;conv_1</title>
<path fill="none" stroke="#7d3c98" stroke-width="1.2" stroke-dasharray="5,2" d="M402.07,-334.14C425.19,-342.53 437.43,-345.65 450.38,-344.92"/>
<polygon fill="#7d3c98" stroke="#7d3c98" stroke-width="1.2" points="451.13,-348.35 460.62,-343.64 450.26,-341.41 451.13,-348.35"/>
<text text-anchor="middle" x="416.24" y="-345.91" font-family="Arial" font-size="9.00">charge</text>
</g>
<!-- bat_1 -->
<g id="node12" class="node">
<title>bat_1</title>
<g id="a_node12"><a xlink:title="Battery uid=1 emax=200">
<polygon fill="#f4ecf7" stroke="transparent" points="539.96,-387.8 539.96,-431.8 606.96,-431.8 606.96,-387.8 539.96,-387.8"/>
<polygon fill="none" stroke="#7d3c98" points="540.46,-387.8 540.46,-431.8 607.46,-431.8 607.46,-387.8 540.46,-387.8"/>
<text text-anchor="start" x="563.96" y="-417.8" font-family="Arial" font-weight="bold" font-size="10.00">bat1</text>
<text text-anchor="start" x="552.46" y="-407.8" font-family="Arial" font-weight="bold" font-size="10.00">200 MWh</text>
<text text-anchor="start" x="547.46" y="-397.8" font-family="Arial" font-weight="bold" font-size="10.00">η=0.95/0.95</text>
</a>
</g>
</g>
<!-- bat_1&#45;&gt;conv_1 -->
<g id="edge13" class="edge">
<title>bat_1&#45;&gt;conv_1</title>
<path fill="none" stroke="#7d3c98" stroke-width="1.2" stroke-dasharray="5,2" d="M545.52,-383.73C539.65,-378.7 532.42,-372.75 521.91,-364.25"/>
<polygon fill="#7d3c98" stroke="#7d3c98" stroke-width="1.2" points="524.08,-361.5 514.1,-357.94 519.68,-366.94 524.08,-361.5"/>
<text text-anchor="middle" x="515.54" y="-383.65" font-family="Arial" font-size="9.00">stored</text>
<text text-anchor="middle" x="515.54" y="-373.65" font-family="Arial" font-size="9.00">energy</text>
</g>
<!-- conv_1&#45;&gt;gen_4 -->
<g id="edge14" class="edge">
<title>conv_1&#45;&gt;gen_4</title>
<path fill="none" stroke="#7d3c98" stroke-width="1.2" stroke-dasharray="5,2" d="M483.96,-315.42C479.8,-295.93 474.33,-286.41 454.33,-265.5"/>
<polygon fill="#7d3c98" stroke="#7d3c98" stroke-width="1.2" points="456.79,-263.01 447.3,-258.29 451.77,-267.9 456.79,-263.01"/>
<text text-anchor="middle" x="449.57" y="-286.33" font-family="Arial" font-size="9.00">discharge</text>
</g>
</g>
</svg>
