<?xml version="1.0" encoding="UTF-8" standalone="no"?>
<!DOCTYPE svg PUBLIC "-//W3C//DTD SVG 1.1//EN"
 "http://www.w3.org/Graphics/SVG/1.1/DTD/svg11.dtd">
<!-- Generated by graphviz version 2.43.0 (0)
 -->
<!-- Title: ieee_14 Pages: 1 -->
<svg width="830pt" height="839pt"
 viewBox="0.00 0.00 830.00 839.00" xmlns="http://www.w3.org/2000/svg" xmlns:xlink="http://www.w3.org/1999/xlink">
<g id="graph0" class="graph" transform="scale(1 1) rotate(0) translate(36 803)">
<title>ieee_14</title>
<polygon fill="white" stroke="transparent" points="-36,36 -36,-803 794,-803 794,36 -36,36"/>
<text text-anchor="start" x="354.5" y="-752.8" font-family="Arial" font-weight="bold" font-size="14.00">ieee_14</text>
<!-- bus_1 -->
<g id="node1" class="node">
<title>bus_1</title>
<g id="a_node1"><a xlink:title="Bus uid=1 name=b1">
<polygon fill="#d6eaf8" stroke="transparent" points="158.63,-477.04 158.63,-502.04 184.63,-502.04 184.63,-477.04 158.63,-477.04"/>
<polygon fill="none" stroke="#1a5276" points="158.63,-476.54 158.63,-501.54 184.63,-501.54 184.63,-476.54 158.63,-476.54"/>
<text text-anchor="start" x="165.63" y="-487.54" font-family="Arial" font-weight="bold" font-size="10.00">b1</text>
</a>
</g>
</g>
<!-- bus_2 -->
<g id="node2" class="node">
<title>bus_2</title>
<g id="a_node2"><a xlink:title="Bus uid=2 name=b2">
<polygon fill="#d6eaf8" stroke="transparent" points="167.41,-384.65 167.41,-409.65 193.41,-409.65 193.41,-384.65 167.41,-384.65"/>
<polygon fill="none" stroke="#1a5276" points="167.41,-384.15 167.41,-409.15 193.41,-409.15 193.41,-384.15 167.41,-384.15"/>
<text text-anchor="start" x="174.41" y="-395.15" font-family="Arial" font-weight="bold" font-size="10.00">b2</text>
</a>
</g>
</g>
<!-- bus_1&#45;&gt;bus_2 -->
<g id="edge17" class="edge">
<title>bus_1&#45;&gt;bus_2</title>
<path fill="none" stroke="#2c3e50" stroke-width="2.5" d="M165.88,-471.3C160.29,-451.57 161.67,-442.97 172.89,-415.28"/>
<text text-anchor="middle" x="132.58" y="-439.08" font-family="Arial" font-size="9.00">l1_2</text>
<text text-anchor="middle" x="132.58" y="-429.08" font-family="Arial" font-size="9.00">x=0.05917 p.u.</text>
<text text-anchor="middle" x="132.58" y="-419.08" font-family="Arial" font-size="9.00">150 MW</text>
</g>
<!-- bus_5 -->
<g id="node5" class="node">
<title>bus_5</title>
<g id="a_node5"><a xlink:title="Bus uid=5 name=b5">
<polygon fill="#d6eaf8" stroke="transparent" points="253.83,-485.14 253.83,-510.14 279.83,-510.14 279.83,-485.14 253.83,-485.14"/>
<polygon fill="none" stroke="#1a5276" points="253.83,-484.64 253.83,-509.64 279.83,-509.64 279.83,-484.64 253.83,-484.64"/>
<text text-anchor="start" x="260.83" y="-495.64" font-family="Arial" font-weight="bold" font-size="10.00">b5</text>
</a>
</g>
</g>
<!-- bus_1&#45;&gt;bus_5 -->
<g id="edge18" class="edge">
<title>bus_1&#45;&gt;bus_5</title>
<path fill="none" stroke="#2c3e50" stroke-width="1.75" d="M198.68,-500.77C208.64,-503.25 219.08,-502.99 239.57,-500.81"/>
<text text-anchor="middle" x="184.67" y="-525.34" font-family="Arial" font-size="9.00">l1_5</text>
<text text-anchor="middle" x="184.67" y="-515.34" font-family="Arial" font-size="9.00">x=0.22304 p.u.</text>
<text text-anchor="middle" x="184.67" y="-505.34" font-family="Arial" font-size="9.00">75 MW</text>
</g>
<!-- bus_3 -->
<g id="node3" class="node">
<title>bus_3</title>
<g id="a_node3"><a xlink:title="Bus uid=3 name=b3">
<polygon fill="#d6eaf8" stroke="transparent" points="186.56,-183 186.56,-208 212.56,-208 212.56,-183 186.56,-183"/>
<polygon fill="none" stroke="#1a5276" points="186.56,-182.5 186.56,-207.5 212.56,-207.5 212.56,-182.5 186.56,-182.5"/>
<text text-anchor="start" x="193.56" y="-193.5" font-family="Arial" font-weight="bold" font-size="10.00">b3</text>
</a>
</g>
</g>
<!-- bus_2&#45;&gt;bus_3 -->
<g id="edge19" class="edge">
<title>bus_2&#45;&gt;bus_3</title>
<path fill="none" stroke="#2c3e50" stroke-width="1.8" d="M176.06,-379.15C154.4,-288.87 154.73,-277.89 189.65,-213.59"/>
<text text-anchor="middle" x="192.14" y="-309.43" font-family="Arial" font-size="9.00">l2_3</text>
<text text-anchor="middle" x="192.14" y="-299.43" font-family="Arial" font-size="9.00">x=0.19797 p.u.</text>
<text text-anchor="middle" x="192.14" y="-289.43" font-family="Arial" font-size="9.00">80 MW</text>
</g>
<!-- bus_4 -->
<g id="node4" class="node">
<title>bus_4</title>
<g id="a_node4"><a xlink:title="Bus uid=4 name=b4">
<polygon fill="#d6eaf8" stroke="transparent" points="278.55,-296.1 278.55,-321.1 304.55,-321.1 304.55,-296.1 278.55,-296.1"/>
<polygon fill="none" stroke="#1a5276" points="278.55,-295.6 278.55,-320.6 304.55,-320.6 304.55,-295.6 278.55,-295.6"/>
<text text-anchor="start" x="285.55" y="-306.6" font-family="Arial" font-weight="bold" font-size="10.00">b4</text>
</a>
</g>
</g>
<!-- bus_2&#45;&gt;bus_4 -->
<g id="edge20" class="edge">
<title>bus_2&#45;&gt;bus_4</title>
<path fill="none" stroke="#2c3e50" stroke-width="1.8" d="M190.91,-379.07C206.9,-352.66 216.79,-345.21 264.44,-321.78"/>
<text text-anchor="middle" x="185.3" y="-372.11" font-family="Arial" font-size="9.00">l2_4</text>
<text text-anchor="middle" x="185.3" y="-362.11" font-family="Arial" font-size="9.00">x=0.17632 p.u.</text>
<text text-anchor="middle" x="185.3" y="-352.11" font-family="Arial" font-size="9.00">80 MW</text>
</g>
<!-- bus_2&#45;&gt;bus_5 -->
<g id="edge21" class="edge">
<title>bus_2&#45;&gt;bus_5</title>
<path fill="none" stroke="#2c3e50" stroke-width="1.8" d="M186.18,-415.35C198.02,-451.6 204.54,-460.59 239.69,-481.78"/>
<text text-anchor="middle" x="234.69" y="-447.01" font-family="Arial" font-size="9.00">l2_5</text>
<text text-anchor="middle" x="234.69" y="-437.01" font-family="Arial" font-size="9.00">x=0.17388 p.u.</text>
<text text-anchor="middle" x="234.69" y="-427.01" font-family="Arial" font-size="9.00">80 MW</text>
</g>
<!-- dem_1 -->
<g id="node20" class="node">
<title>dem_1</title>
<g id="a_node20"><a xlink:title="Demand uid=1 name=d2 lmax=21.2…45.0">
<polygon fill="#fadbd8" stroke="transparent" points="7.87,-379.28 7.87,-413.28 90.87,-413.28 90.87,-379.28 7.87,-379.28"/>
<polygon fill="none" stroke="#c0392b" points="8.37,-379.28 8.37,-413.28 91.37,-413.28 91.37,-379.28 8.37,-379.28"/>
<text text-anchor="start" x="43.87" y="-399.28" font-family="Arial" font-weight="bold" font-size="10.00">d2</text>
<text text-anchor="start" x="15.37" y="-389.28" font-family="Arial" font-weight="bold" font-size="10.00">21.2…45.0 MW</text>
</a>
</g>
</g>
<!-- bus_2&#45;&gt;dem_1 -->
<g id="edge6" class="edge">
<title>bus_2&#45;&gt;dem_1</title>
<path fill="none" stroke="#c0392b" stroke-width="1.5" d="M153.04,-397.75C131.38,-398.21 116.54,-398.48 105.06,-398.55"/>
<polygon fill="#c0392b" stroke="#c0392b" stroke-width="1.5" points="104.97,-395.05 94.97,-398.55 104.97,-402.05 104.97,-395.05"/>
</g>
<!-- bus_3&#45;&gt;bus_4 -->
<g id="edge22" class="edge">
<title>bus_3&#45;&gt;bus_4</title>
<path fill="none" stroke="#2c3e50" stroke-width="1.6" d="M211.71,-213.82C224.87,-233.14 234.76,-244.73 275.45,-290.51"/>
<text text-anchor="middle" x="202.75" y="-265.04" font-family="Arial" font-size="9.00">l3_4</text>
<text text-anchor="middle" x="202.75" y="-255.04" font-family="Arial" font-size="9.00">x=0.17103 p.u.</text>
<text text-anchor="middle" x="202.75" y="-245.04" font-family="Arial" font-size="9.00">60 MW</text>
</g>
<!-- dem_2 -->
<g id="node21" class="node">
<title>dem_2</title>
<g id="a_node21"><a xlink:title="Demand uid=2 name=d3 lmax=50.8…108.0">
<polygon fill="#fadbd8" stroke="transparent" points="46.96,-130.17 46.96,-164.17 134.96,-164.17 134.96,-130.17 46.96,-130.17"/>
<polygon fill="none" stroke="#c0392b" points="46.96,-130.17 46.96,-164.17 134.96,-164.17 134.96,-130.17 46.96,-130.17"/>
<text text-anchor="start" x="84.96" y="-150.17" font-family="Arial" font-weight="bold" font-size="10.00">d3</text>
<text text-anchor="start" x="53.96" y="-140.17" font-family="Arial" font-weight="bold" font-size="10.00">50.8…108.0 MW</text>
</a>
</g>
</g>
<!-- bus_3&#45;&gt;dem_2 -->
<g id="edge7" class="edge">
<title>bus_3&#45;&gt;dem_2</title>
<path fill="none" stroke="#c0392b" stroke-width="1.5" d="M172.4,-180.65C162.63,-175.34 154.74,-171.11 148.07,-167.67"/>
<polygon fill="#c0392b" stroke="#c0392b" stroke-width="1.5" points="149.6,-164.52 139.09,-163.16 146.46,-170.78 149.6,-164.52"/>
</g>
<!-- bus_4&#45;&gt;bus_5 -->
<g id="edge23" class="edge">
<title>bus_4&#45;&gt;bus_5</title>
<path fill="none" stroke="#2c3e50" stroke-width="1.8" d="M283.22,-326.71C246.27,-407.38 244.31,-418.12 261.6,-479.41"/>
<text text-anchor="middle" x="282.57" y="-433.13" font-family="Arial" font-size="9.00">l4_5</text>
<text text-anchor="middle" x="282.57" y="-423.13" font-family="Arial" font-size="9.00">x=0.04211 p.u.</text>
<text text-anchor="middle" x="282.57" y="-413.13" font-family="Arial" font-size="9.00">80 MW</text>
</g>
<!-- bus_7 -->
<g id="node7" class="node">
<title>bus_7</title>
<g id="a_node7"><a xlink:title="Bus uid=7 name=b7">
<polygon fill="#d6eaf8" stroke="transparent" points="347.05,-229.78 347.05,-254.78 373.05,-254.78 373.05,-229.78 347.05,-229.78"/>
<polygon fill="none" stroke="#1a5276" points="347.05,-229.28 347.05,-254.28 373.05,-254.28 373.05,-229.28 347.05,-229.28"/>
<text text-anchor="start" x="354.05" y="-240.28" font-family="Arial" font-weight="bold" font-size="10.00">b7</text>
</a>
</g>
</g>
<!-- bus_4&#45;&gt;bus_7 -->
<g id="edge24" class="edge">
<title>bus_4&#45;&gt;bus_7</title>
<path fill="none" stroke="#2c3e50" stroke-width="1.7" d="M300.82,-290.34C312.13,-268.64 318.18,-260.77 332.62,-253.51"/>
<text text-anchor="middle" x="285.04" y="-259.31" font-family="Arial" font-size="9.00">l4_7</text>
<text text-anchor="middle" x="285.04" y="-249.31" font-family="Arial" font-size="9.00">x=0.20912 p.u.</text>
<text text-anchor="middle" x="285.04" y="-239.31" font-family="Arial" font-size="9.00">70 MW</text>
</g>
<!-- bus_9 -->
<g id="node9" class="node">
<title>bus_9</title>
<g id="a_node9"><a xlink:title="Bus uid=9 name=b9">
<polygon fill="#d6eaf8" stroke="transparent" points="434.09,-283.68 434.09,-308.68 460.09,-308.68 460.09,-283.68 434.09,-283.68"/>
<polygon fill="none" stroke="#1a5276" points="434.09,-283.18 434.09,-308.18 460.09,-308.18 460.09,-283.18 434.09,-283.18"/>
<text text-anchor="start" x="441.09" y="-294.18" font-family="Arial" font-weight="bold" font-size="10.00">b9</text>
</a>
</g>
</g>
<!-- bus_4&#45;&gt;bus_9 -->
<g id="edge25" class="edge">
<title>bus_4&#45;&gt;bus_9</title>
<path fill="none" stroke="#2c3e50" stroke-width="1.5" d="M318.62,-295.11C359.7,-275.31 372.9,-274.64 420.01,-288.15"/>
<text text-anchor="middle" x="336.56" y="-301.94" font-family="Arial" font-size="9.00">l4_9</text>
<text text-anchor="middle" x="336.56" y="-291.94" font-family="Arial" font-size="9.00">x=0.55618 p.u.</text>
<text text-anchor="middle" x="336.56" y="-281.94" font-family="Arial" font-size="9.00">40 MW</text>
</g>
<!-- dem_3 -->
<g id="node22" class="node">
<title>dem_3</title>
<g id="a_node22"><a xlink:title="Demand uid=3 name=d4 lmax=42.3…90.0">
<polygon fill="#fadbd8" stroke="transparent" points="50.86,-266.48 50.86,-300.48 133.86,-300.48 133.86,-266.48 50.86,-266.48"/>
<polygon fill="none" stroke="#c0392b" points="51.36,-266.48 51.36,-300.48 134.36,-300.48 134.36,-266.48 51.36,-266.48"/>
<text text-anchor="start" x="86.86" y="-286.48" font-family="Arial" font-weight="bold" font-size="10.00">d4</text>
<text text-anchor="start" x="58.36" y="-276.48" font-family="Arial" font-weight="bold" font-size="10.00">42.3…90.0 MW</text>
</a>
</g>
</g>
<!-- bus_4&#45;&gt;dem_3 -->
<g id="edge8" class="edge">
<title>bus_4&#45;&gt;dem_3</title>
<path fill="none" stroke="#c0392b" stroke-width="1.5" d="M264.31,-303.1C200.09,-290.15 172,-284.83 148.17,-283.12"/>
<polygon fill="#c0392b" stroke="#c0392b" stroke-width="1.5" points="148.29,-279.62 138.12,-282.59 147.93,-286.61 148.29,-279.62"/>
</g>
<!-- bus_6 -->
<g id="node6" class="node">
<title>bus_6</title>
<g id="a_node6"><a xlink:title="Bus uid=6 name=b6">
<polygon fill="#d6eaf8" stroke="transparent" points="409.68,-568.68 409.68,-593.68 435.68,-593.68 435.68,-568.68 409.68,-568.68"/>
<polygon fill="none" stroke="#1a5276" points="409.68,-568.18 409.68,-593.18 435.68,-593.18 435.68,-568.18 409.68,-568.18"/>
<text text-anchor="start" x="416.68" y="-579.18" font-family="Arial" font-weight="bold" font-size="10.00">b6</text>
</a>
</g>
</g>
<!-- bus_5&#45;&gt;bus_6 -->
<g id="edge26" class="edge">
<title>bus_5&#45;&gt;bus_6</title>
<path fill="none" stroke="#2c3e50" stroke-width="1.7" d="M283.63,-515.7C331.14,-566.47 342.41,-573.53 395.56,-578.79"/>
<text text-anchor="middle" x="306.98" y="-587.11" font-family="Arial" font-size="9.00">l5_6</text>
<text text-anchor="middle" x="306.98" y="-577.11" font-family="Arial" font-size="9.00">x=0.25202 p.u.</text>
<text text-anchor="middle" x="306.98" y="-567.11" font-family="Arial" font-size="9.00">70 MW</text>
</g>
<!-- dem_4 -->
<g id="node23" class="node">
<title>dem_4</title>
<g id="a_node23"><a xlink:title="Demand uid=4 name=d5 lmax=10.3…22.0">
<polygon fill="#fadbd8" stroke="transparent" points="182.34,-584.74 182.34,-618.74 265.34,-618.74 265.34,-584.74 182.34,-584.74"/>
<polygon fill="none" stroke="#c0392b" points="182.84,-584.74 182.84,-618.74 265.84,-618.74 265.84,-584.74 182.84,-584.74"/>
<text text-anchor="start" x="218.34" y="-604.74" font-family="Arial" font-weight="bold" font-size="10.00">d5</text>
<text text-anchor="start" x="189.84" y="-594.74" font-family="Arial" font-weight="bold" font-size="10.00">10.3…22.0 MW</text>
</a>
</g>
</g>
<!-- bus_5&#45;&gt;dem_4 -->
<g id="edge9" class="edge">
<title>bus_5&#45;&gt;dem_4</title>
<path fill="none" stroke="#c0392b" stroke-width="1.5" d="M257.7,-515.92C243.11,-545.16 236.5,-558.92 232.23,-570.81"/>
<polygon fill="#c0392b" stroke="#c0392b" stroke-width="1.5" points="228.8,-570.06 229.08,-580.65 235.46,-572.2 228.8,-570.06"/>
</g>
<!-- bus_11 -->
<g id="node11" class="node">
<title>bus_11</title>
<g id="a_node11"><a xlink:title="Bus uid=11 name=b11">
<polygon fill="#d6eaf8" stroke="transparent" points="497.09,-450.61 497.09,-475.61 528.09,-475.61 528.09,-450.61 497.09,-450.61"/>
<polygon fill="none" stroke="#1a5276" points="497.59,-450.11 497.59,-475.11 528.59,-475.11 528.59,-450.11 497.59,-450.11"/>
<text text-anchor="start" x="504.59" y="-461.11" font-family="Arial" font-weight="bold" font-size="10.00">b11</text>
</a>
</g>
</g>
<!-- bus_6&#45;&gt;bus_11 -->
<g id="edge27" class="edge">
<title>bus_6&#45;&gt;bus_11</title>
<path fill="none" stroke="#2c3e50" stroke-width="1.5" d="M449.75,-565.69C480.51,-546.92 487.01,-534.92 506.19,-481.18"/>
<text text-anchor="middle" x="454.31" y="-529.35" font-family="Arial" font-size="9.00">l6_11</text>
<text text-anchor="middle" x="454.31" y="-519.35" font-family="Arial" font-size="9.00">x=0.1989 p.u.</text>
<text text-anchor="middle" x="454.31" y="-509.35" font-family="Arial" font-size="9.00">35 MW</text>
</g>
<!-- bus_12 -->
<g id="node12" class="node">
<title>bus_12</title>
<g id="a_node12"><a xlink:title="Bus uid=12 name=b12">
<polygon fill="#d6eaf8" stroke="transparent" points="472.21,-544.52 472.21,-569.52 503.21,-569.52 503.21,-544.52 472.21,-544.52"/>
<polygon fill="none" stroke="#1a5276" points="472.71,-544.02 472.71,-569.02 503.71,-569.02 503.71,-544.02 472.71,-544.02"/>
<text text-anchor="start" x="479.71" y="-555.02" font-family="Arial" font-weight="bold" font-size="10.00">b12</text>
</a>
</g>
</g>
<!-- bus_6&#45;&gt;bus_12 -->
<g id="edge28" class="edge">
<title>bus_6&#45;&gt;bus_12</title>
<path fill="none" stroke="#2c3e50" stroke-width="1.5" d="M449.79,-580.9C456.16,-580.16 460.88,-578.52 466.07,-575.19"/>
<text text-anchor="middle" x="488.87" y="-601.82" font-family="Arial" font-size="9.00">l6_12</text>
<text text-anchor="middle" x="488.87" y="-591.82" font-family="Arial" font-size="9.00">x=0.25581 p.u.</text>
<text text-anchor="middle" x="488.87" y="-581.82" font-family="Arial" font-size="9.00">25 MW</text>
</g>
<!-- bus_13 -->
<g id="node13" class="node">
<title>bus_13</title>
<g id="a_node13"><a xlink:title="Bus uid=13 name=b13">
<polygon fill="#d6eaf8" stroke="transparent" points="585.07,-511.71 585.07,-536.71 616.07,-536.71 616.07,-511.71 585.07,-511.71"/>
<polygon fill="none" stroke="#1a5276" points="585.57,-511.21 585.57,-536.21 616.57,-536.21 616.57,-511.21 585.57,-511.21"/>
<text text-anchor="start" x="592.57" y="-522.21" font-family="Arial" font-weight="bold" font-size="10.00">b13</text>
</a>
</g>
</g>
<!-- bus_6&#45;&gt;bus_13 -->
<g id="edge29" class="edge">
<title>bus_6&#45;&gt;bus_13</title>
<path fill="none" stroke="#2c3e50" stroke-width="1.5" d="M449.78,-581.54C523.54,-582.24 537.03,-578.72 579.79,-542.28"/>
<text text-anchor="middle" x="556.91" y="-568.64" font-family="Arial" font-size="9.00">l6_13</text>
<text text-anchor="middle" x="556.91" y="-558.64" font-family="Arial" font-size="9.00">x=0.13027 p.u.</text>
<text text-anchor="middle" x="556.91" y="-548.64" font-family="Arial" font-size="9.00">50 MW</text>
</g>
<!-- dem_5 -->
<g id="node24" class="node">
<title>dem_5</title>
<g id="a_node24"><a xlink:title="Demand uid=5 name=d6 lmax=17.9…38.0">
<polygon fill="#fadbd8" stroke="transparent" points="434.18,-703.07 434.18,-737.07 517.18,-737.07 517.18,-703.07 434.18,-703.07"/>
<polygon fill="none" stroke="#c0392b" points="434.68,-703.07 434.68,-737.07 517.68,-737.07 517.68,-703.07 434.68,-703.07"/>
<text text-anchor="start" x="470.18" y="-723.07" font-family="Arial" font-weight="bold" font-size="10.00">d6</text>
<text text-anchor="start" x="441.68" y="-713.07" font-family="Arial" font-weight="bold" font-size="10.00">17.9…38.0 MW</text>
</a>
</g>
</g>
<!-- bus_6&#45;&gt;dem_5 -->
<g id="edge10" class="edge">
<title>bus_6&#45;&gt;dem_5</title>
<path fill="none" stroke="#c0392b" stroke-width="1.5" d="M428.89,-599.25C447.27,-652.73 453.95,-671.72 461.65,-689.63"/>
<polygon fill="#c0392b" stroke="#c0392b" stroke-width="1.5" points="458.58,-691.35 465.84,-699.07 464.98,-688.51 458.58,-691.35"/>
</g>
<!-- bus_8 -->
<g id="node8" class="node">
<title>bus_8</title>
<g id="a_node8"><a xlink:title="Bus uid=8 name=b8">
<polygon fill="#d6eaf8" stroke="transparent" points="342.12,-80.67 342.12,-105.67 368.12,-105.67 368.12,-80.67 342.12,-80.67"/>
<polygon fill="none" stroke="#1a5276" points="342.12,-80.17 342.12,-105.17 368.12,-105.17 368.12,-80.17 342.12,-80.17"/>
<text text-anchor="start" x="349.12" y="-91.17" font-family="Arial" font-weight="bold" font-size="10.00">b8</text>
</a>
</g>
</g>
<!-- bus_7&#45;&gt;bus_8 -->
<g id="edge30" class="edge">
<title>bus_7&#45;&gt;bus_8</title>
<path fill="none" stroke="#2c3e50" stroke-width="1.5" d="M359.08,-224.19C355.23,-152.04 354.63,-138.39 354.89,-111.25"/>
<text text-anchor="middle" x="324.94" y="-173.64" font-family="Arial" font-size="9.00">l7_8</text>
<text text-anchor="middle" x="324.94" y="-163.64" font-family="Arial" font-size="9.00">x=0.17615 p.u.</text>
<text text-anchor="middle" x="324.94" y="-153.64" font-family="Arial" font-size="9.00">50 MW</text>
</g>
<!-- bus_7&#45;&gt;bus_9 -->
<g id="edge31" class="edge">
<title>bus_7&#45;&gt;bus_9</title>
<path fill="none" stroke="#2c3e50" stroke-width="1.7" d="M387.16,-246.76C405.91,-250.89 414.08,-257.14 432.02,-278.12"/>
<text text-anchor="middle" x="440.39" y="-248.92" font-family="Arial" font-size="9.00">l7_9</text>
<text text-anchor="middle" x="440.39" y="-238.92" font-family="Arial" font-size="9.00">x=0.11001 p.u.</text>
<text text-anchor="middle" x="440.39" y="-228.92" font-family="Arial" font-size="9.00">70 MW</text>
</g>
<!-- bus_10 -->
<g id="node10" class="node">
<title>bus_10</title>
<g id="a_node10"><a xlink:title="Bus uid=10 name=b10">
<polygon fill="#d6eaf8" stroke="transparent" points="562.46,-289.46 562.46,-314.46 593.46,-314.46 593.46,-289.46 562.46,-289.46"/>
<polygon fill="none" stroke="#1a5276" points="562.96,-288.96 562.96,-313.96 593.96,-313.96 593.96,-288.96 562.96,-288.96"/>
<text text-anchor="start" x="569.96" y="-299.96" font-family="Arial" font-weight="bold" font-size="10.00">b10</text>
</a>
</g>
</g>
<!-- bus_9&#45;&gt;bus_10 -->
<g id="edge32" class="edge">
<title>bus_9&#45;&gt;bus_10</title>
<path fill="none" stroke="#2c3e50" stroke-width="1.5" d="M474.34,-293.24C517.76,-288.65 532.78,-288.07 550.93,-292.88"/>
<text text-anchor="middle" x="522.11" y="-282.34" font-family="Arial" font-size="9.00">l9_10</text>
<text text-anchor="middle" x="522.11" y="-272.34" font-family="Arial" font-size="9.00">x=0.0845 p.u.</text>
<text text-anchor="middle" x="522.11" y="-262.34" font-family="Arial" font-size="9.00">40 MW</text>
</g>
<!-- bus_14 -->
<g id="node14" class="node">
<title>bus_14</title>
<g id="a_node14"><a xlink:title="Bus uid=14 name=b14">
<polygon fill="#d6eaf8" stroke="transparent" points="613.85,-387.16 613.85,-412.16 644.85,-412.16 644.85,-387.16 613.85,-387.16"/>
<polygon fill="none" stroke="#1a5276" points="614.35,-386.66 614.35,-411.66 645.35,-411.66 645.35,-386.66 614.35,-386.66"/>
<text text-anchor="start" x="621.35" y="-397.66" font-family="Arial" font-weight="bold" font-size="10.00">b14</text>
</a>
</g>
</g>
<!-- bus_9&#45;&gt;bus_14 -->
<g id="edge33" class="edge">
<title>bus_9&#45;&gt;bus_14</title>
<path fill="none" stroke="#2c3e50" stroke-width="1.5" d="M474.16,-305.48C566.3,-337.26 580.73,-344.35 613.36,-381.18"/>
<text text-anchor="middle" x="535.58" y="-364.24" font-family="Arial" font-size="9.00">l9_14</text>
<text text-anchor="middle" x="535.58" y="-354.24" font-family="Arial" font-size="9.00">x=0.27038 p.u.</text>
<text text-anchor="middle" x="535.58" y="-344.24" font-family="Arial" font-size="9.00">40 MW</text>
</g>
<!-- dem_6 -->
<g id="node25" class="node">
<title>dem_6</title>
<g id="a_node25"><a xlink:title="Demand uid=6 name=d9 lmax=31.9…68.0">
<polygon fill="#fadbd8" stroke="transparent" points="473.4,-159.99 473.4,-193.99 556.4,-193.99 556.4,-159.99 473.4,-159.99"/>
<polygon fill="none" stroke="#c0392b" points="473.9,-159.99 473.9,-193.99 556.9,-193.99 556.9,-159.99 473.9,-159.99"/>
<text text-anchor="start" x="509.4" y="-179.99" font-family="Arial" font-weight="bold" font-size="10.00">d9</text>
<text text-anchor="start" x="480.9" y="-169.99" font-family="Arial" font-weight="bold" font-size="10.00">31.9…68.0 MW</text>
</a>
</g>
</g>
<!-- bus_9&#45;&gt;dem_6 -->
<g id="edge11" class="edge">
<title>bus_9&#45;&gt;dem_6</title>
<path fill="none" stroke="#c0392b" stroke-width="1.5" d="M458.27,-278.11C482.83,-238.36 492.56,-222.34 500.29,-207.48"/>
<polygon fill="#c0392b" stroke="#c0392b" stroke-width="1.5" points="503.61,-208.68 504.97,-198.17 497.35,-205.54 503.61,-208.68"/>
</g>
<!-- bus_10&#45;&gt;bus_11 -->
<g id="edge34" class="edge">
<title>bus_10&#45;&gt;bus_11</title>
<path fill="none" stroke="#2c3e50" stroke-width="1.5" d="M578.38,-320.34C579.45,-379.28 575.45,-389.45 528.26,-444.84"/>
<text text-anchor="middle" x="540.92" y="-406.72" font-family="Arial" font-size="9.00">l10_11</text>
<text text-anchor="middle" x="540.92" y="-396.72" font-family="Arial" font-size="9.00">x=0.19207 p.u.</text>
<text text-anchor="middle" x="540.92" y="-386.72" font-family="Arial" font-size="9.00">30 MW</text>
</g>
<!-- dem_7 -->
<g id="node26" class="node">
<title>dem_7</title>
<g id="a_node26"><a xlink:title="Demand uid=7 name=d10 lmax=10.3…22.0">
<polygon fill="#fadbd8" stroke="transparent" points="599.12,-237.96 599.12,-271.96 682.12,-271.96 682.12,-237.96 599.12,-237.96"/>
<polygon fill="none" stroke="#c0392b" points="599.62,-237.96 599.62,-271.96 682.62,-271.96 682.62,-237.96 599.62,-237.96"/>
<text text-anchor="start" x="632.62" y="-257.96" font-family="Arial" font-weight="bold" font-size="10.00">d10</text>
<text text-anchor="start" x="606.62" y="-247.96" font-family="Arial" font-weight="bold" font-size="10.00">10.3…22.0 MW</text>
</a>
</g>
</g>
<!-- bus_10&#45;&gt;dem_7 -->
<g id="edge12" class="edge">
<title>bus_10&#45;&gt;dem_7</title>
<path fill="none" stroke="#c0392b" stroke-width="1.5" d="M605.04,-284.48C606.48,-283.54 607.83,-282.64 609.1,-281.79"/>
<polygon fill="#c0392b" stroke="#c0392b" stroke-width="1.5" points="611.27,-284.55 617.51,-275.99 607.29,-278.79 611.27,-284.55"/>
</g>
<!-- dem_8 -->
<g id="node27" class="node">
<title>dem_8</title>
<g id="a_node27"><a xlink:title="Demand uid=8 name=d11 lmax=5.6…12.0">
<polygon fill="#fadbd8" stroke="transparent" points="588.04,-598.08 588.04,-632.08 666.04,-632.08 666.04,-598.08 588.04,-598.08"/>
<polygon fill="none" stroke="#c0392b" points="588.04,-598.08 588.04,-632.08 666.04,-632.08 666.04,-598.08 588.04,-598.08"/>
<text text-anchor="start" x="618.54" y="-618.08" font-family="Arial" font-weight="bold" font-size="10.00">d11</text>
<text text-anchor="start" x="595.04" y="-608.08" font-family="Arial" font-weight="bold" font-size="10.00">5.6…12.0 MW</text>
</a>
</g>
</g>
<!-- bus_11&#45;&gt;dem_8 -->
<g id="edge13" class="edge">
<title>bus_11&#45;&gt;dem_8</title>
<path fill="none" stroke="#c0392b" stroke-width="1.5" d="M527.93,-481.17C580.48,-543.07 594.87,-560.59 609.82,-585.15"/>
<polygon fill="#c0392b" stroke="#c0392b" stroke-width="1.5" points="606.86,-587.01 614.97,-593.82 612.88,-583.43 606.86,-587.01"/>
</g>
<!-- bus_12&#45;&gt;bus_13 -->
<g id="edge35" class="edge">
<title>bus_12&#45;&gt;bus_13</title>
<path fill="none" stroke="#2c3e50" stroke-width="1.5" d="M514.77,-557.07C548.83,-556.83 560.62,-554.59 577.87,-542.31"/>
<text text-anchor="middle" x="522.13" y="-547" font-family="Arial" font-size="9.00">l12_13</text>
<text text-anchor="middle" x="522.13" y="-537" font-family="Arial" font-size="9.00">x=0.19988 p.u.</text>
<text text-anchor="middle" x="522.13" y="-527" font-family="Arial" font-size="9.00">20 MW</text>
</g>
<!-- dem_9 -->
<g id="node28" class="node">
<title>dem_9</title>
<g id="a_node28"><a xlink:title="Demand uid=9 name=d12 lmax=6.6…14.0">
<polygon fill="#fadbd8" stroke="transparent" points="388.23,-443.24 388.23,-477.24 466.23,-477.24 466.23,-443.24 388.23,-443.24"/>
<polygon fill="none" stroke="#c0392b" points="388.23,-443.24 388.23,-477.24 466.23,-477.24 466.23,-443.24 388.23,-443.24"/>
<text text-anchor="start" x="418.73" y="-463.24" font-family="Arial" font-weight="bold" font-size="10.00">d12</text>
<text text-anchor="start" x="395.23" y="-453.24" font-family="Arial" font-weight="bold" font-size="10.00">6.6…14.0 MW</text>
</a>
</g>
</g>
<!-- bus_12&#45;&gt;dem_9 -->
<g id="edge14" class="edge">
<title>bus_12&#45;&gt;dem_9</title>
<path fill="none" stroke="#c0392b" stroke-width="1.5" d="M475.84,-538.95C468.34,-527.39 461.91,-517.01 445.34,-489.89"/>
<polygon fill="#c0392b" stroke="#c0392b" stroke-width="1.5" points="448.32,-488.07 440.12,-481.36 442.35,-491.72 448.32,-488.07"/>
</g>
<!-- bus_13&#45;&gt;bus_14 -->
<g id="edge36" class="edge">
<title>bus_13&#45;&gt;bus_14</title>
<path fill="none" stroke="#2c3e50" stroke-width="1.5" d="M613.53,-506.03C635.99,-473.74 637.55,-463.88 631.74,-417.92"/>
<text text-anchor="middle" x="602.74" y="-489.9" font-family="Arial" font-size="9.00">l13_14</text>
<text text-anchor="middle" x="602.74" y="-479.9" font-family="Arial" font-size="9.00">x=0.34802 p.u.</text>
<text text-anchor="middle" x="602.74" y="-469.9" font-family="Arial" font-size="9.00">30 MW</text>
</g>
<!-- dem_10 -->
<g id="node29" class="node">
<title>dem_10</title>
<g id="a_node29"><a xlink:title="Demand uid=10 name=d13 lmax=14.1…30.0">
<polygon fill="#fadbd8" stroke="transparent" points="669.52,-381.77 669.52,-415.77 752.52,-415.77 752.52,-381.77 669.52,-381.77"/>
<polygon fill="none" stroke="#c0392b" points="670.02,-381.77 670.02,-415.77 753.02,-415.77 753.02,-381.77 670.02,-381.77"/>
<text text-anchor="start" x="703.02" y="-401.77" font-family="Arial" font-weight="bold" font-size="10.00">d13</text>
<text text-anchor="start" x="677.02" y="-391.77" font-family="Arial" font-weight="bold" font-size="10.00">14.1…30.0 MW</text>
</a>
</g>
</g>
<!-- bus_13&#45;&gt;dem_10 -->
<g id="edge15" class="edge">
<title>bus_13&#45;&gt;dem_10</title>
<path fill="none" stroke="#c0392b" stroke-width="1.5" d="M627.76,-507.73C676.71,-477.66 687.44,-467.05 700.87,-429.43"/>
<polygon fill="#c0392b" stroke="#c0392b" stroke-width="1.5" points="704.23,-430.43 704.17,-419.83 697.61,-428.15 704.23,-430.43"/>
</g>
<!-- dem_11 -->
<g id="node30" class="node">
<title>dem_11</title>
<g id="a_node30"><a xlink:title="Demand uid=11 name=d14 lmax=15.9…34.0">
<polygon fill="#fadbd8" stroke="transparent" points="670.79,-503.81 670.79,-537.81 753.79,-537.81 753.79,-503.81 670.79,-503.81"/>
<polygon fill="none" stroke="#c0392b" points="671.29,-503.81 671.29,-537.81 754.29,-537.81 754.29,-503.81 671.29,-503.81"/>
<text text-anchor="start" x="704.29" y="-523.81" font-family="Arial" font-weight="bold" font-size="10.00">d14</text>
<text text-anchor="start" x="678.29" y="-513.81" font-family="Arial" font-weight="bold" font-size="10.00">15.9…34.0 MW</text>
</a>
</g>
</g>
<!-- bus_14&#45;&gt;dem_11 -->
<g id="edge16" class="edge">
<title>bus_14&#45;&gt;dem_11</title>
<path fill="none" stroke="#c0392b" stroke-width="1.5" d="M647.48,-417.7C684.84,-455.02 695.74,-467.67 703.5,-489.71"/>
<polygon fill="#c0392b" stroke="#c0392b" stroke-width="1.5" points="700.23,-490.97 706.59,-499.44 706.9,-488.85 700.23,-490.97"/>
</g>
<!-- gen_1 -->
<g id="node15" class="node">
<title>gen_1</title>
<g id="a_node15"><a xlink:title="Generator uid=1 pmax=260 gcost=20">
<polygon fill="#fef9e7" stroke="transparent" points="3.56,-575.27 3.56,-609.27 106.56,-609.27 106.56,-575.27 3.56,-575.27"/>
<polygon fill="none" stroke="#e67e22" points="4.06,-575.27 4.06,-609.27 107.06,-609.27 107.06,-575.27 4.06,-575.27"/>
<text text-anchor="start" x="49.56" y="-595.27" font-family="Arial" font-weight="bold" font-size="10.00">g1</text>
<text text-anchor="start" x="11.06" y="-585.27" font-family="Arial" font-weight="bold" font-size="10.00">260 MW &#160;20 $/MWh</text>
</a>
</g>
</g>
<!-- gen_1&#45;&gt;bus_1 -->
<g id="edge1" class="edge">
<title>gen_1&#45;&gt;bus_1</title>
<path fill="none" stroke="#e67e22" stroke-width="1.5" d="M74.92,-571.15C89.17,-556.63 102.33,-545.47 141,-514.23"/>
<polygon fill="#e67e22" stroke="#e67e22" stroke-width="1.5" points="143.5,-516.71 149.08,-507.7 139.1,-511.26 143.5,-516.71"/>
</g>
<!-- gen_2 -->
<g id="node16" class="node">
<title>gen_2</title>
<g id="a_node16"><a xlink:title="Generator uid=2 pmax=130 gcost=35">
<polygon fill="#fef9e7" stroke="transparent" points="241.88,-357.16 241.88,-391.16 344.88,-391.16 344.88,-357.16 241.88,-357.16"/>
<polygon fill="none" stroke="#e67e22" points="242.38,-357.16 242.38,-391.16 345.38,-391.16 345.38,-357.16 242.38,-357.16"/>
<text text-anchor="start" x="287.88" y="-377.16" font-family="Arial" font-weight="bold" font-size="10.00">g2</text>
<text text-anchor="start" x="249.38" y="-367.16" font-family="Arial" font-weight="bold" font-size="10.00">130 MW &#160;35 $/MWh</text>
</a>
</g>
</g>
<!-- gen_2&#45;&gt;bus_2 -->
<g id="edge2" class="edge">
<title>gen_2&#45;&gt;bus_2</title>
<path fill="none" stroke="#e67e22" stroke-width="1.5" d="M237.78,-383.86C229.47,-385.37 223.01,-386.61 217.41,-387.78"/>
<polygon fill="#e67e22" stroke="#e67e22" stroke-width="1.5" points="216.41,-384.41 207.41,-390 217.93,-391.25 216.41,-384.41"/>
</g>
<!-- gen_3 -->
<g id="node17" class="node">
<title>gen_3</title>
<g id="a_node17"><a xlink:title="Generator uid=3 pmax=130 gcost=0">
<polygon fill="#fef9e7" stroke="transparent" points="163.66,-63.52 163.66,-97.52 261.66,-97.52 261.66,-63.52 163.66,-63.52"/>
<polygon fill="none" stroke="#e67e22" points="163.66,-63.52 163.66,-97.52 261.66,-97.52 261.66,-63.52 163.66,-63.52"/>
<text text-anchor="start" x="206.66" y="-83.52" font-family="Arial" font-weight="bold" font-size="10.00">g3</text>
<text text-anchor="start" x="170.66" y="-73.52" font-family="Arial" font-weight="bold" font-size="10.00">130 MW &#160;0 $/MWh</text>
</a>
</g>
</g>
<!-- gen_3&#45;&gt;bus_3 -->
<g id="edge3" class="edge">
<title>gen_3&#45;&gt;bus_3</title>
<path fill="none" stroke="#e67e22" stroke-width="1.5" d="M202.11,-101.65C194.43,-119.1 193.84,-130.97 196.94,-167.03"/>
<polygon fill="#e67e22" stroke="#e67e22" stroke-width="1.5" points="193.48,-167.65 197.85,-177.3 200.45,-167.02 193.48,-167.65"/>
</g>
<!-- gen_4 -->
<g id="node18" class="node">
<title>gen_4</title>
<g id="a_node18"><a xlink:title="Generator uid=4 pmax=100 gcost=40">
<polygon fill="#fef9e7" stroke="transparent" points="289.31,-706.44 289.31,-740.44 392.31,-740.44 392.31,-706.44 289.31,-706.44"/>
<polygon fill="none" stroke="#e67e22" points="289.81,-706.44 289.81,-740.44 392.81,-740.44 392.81,-706.44 289.81,-706.44"/>
<text text-anchor="start" x="335.31" y="-726.44" font-family="Arial" font-weight="bold" font-size="10.00">g6</text>
<text text-anchor="start" x="296.81" y="-716.44" font-family="Arial" font-weight="bold" font-size="10.00">100 MW &#160;40 $/MWh</text>
</a>
</g>
</g>
<!-- gen_4&#45;&gt;bus_6 -->
<g id="edge4" class="edge">
<title>gen_4&#45;&gt;bus_6</title>
<path fill="none" stroke="#e67e22" stroke-width="1.5" d="M362.82,-702.31C381.33,-682.97 388.96,-666.97 411.73,-609.15"/>
<polygon fill="#e67e22" stroke="#e67e22" stroke-width="1.5" points="415.12,-610.09 415.52,-599.51 408.6,-607.53 415.12,-610.09"/>
</g>
<!-- gen_5 -->
<g id="node19" class="node">
<title>gen_5</title>
<g id="a_node19"><a xlink:title="Generator uid=5 pmax=80 gcost=45">
<polygon fill="#fef9e7" stroke="transparent" points="387.7,-3.71 387.7,-37.71 485.7,-37.71 485.7,-3.71 387.7,-3.71"/>
<polygon fill="none" stroke="#e67e22" points="387.7,-3.71 387.7,-37.71 485.7,-37.71 485.7,-3.71 387.7,-3.71"/>
<text text-anchor="start" x="430.7" y="-23.71" font-family="Arial" font-weight="bold" font-size="10.00">g8</text>
<text text-anchor="start" x="394.7" y="-13.71" font-family="Arial" font-weight="bold" font-size="10.00">80 MW &#160;45 $/MWh</text>
</a>
</g>
</g>
<!-- gen_5&#45;&gt;bus_8 -->
<g id="edge5" class="edge">
<title>gen_5&#45;&gt;bus_8</title>
<path fill="none" stroke="#e67e22" stroke-width="1.5" d="M395.35,-41.9C389.31,-47.56 383,-55.25 374.34,-66.84"/>
<polygon fill="#e67e22" stroke="#e67e22" stroke-width="1.5" points="371.41,-64.91 368.29,-75.03 377.04,-69.07 371.41,-64.91"/>
</g>
</g>
</svg>
