<?xml version="1.0" encoding="UTF-8" standalone="no"?>
<!DOCTYPE svg PUBLIC "-//W3C//DTD SVG 1.1//EN"
 "http://www.w3.org/Graphics/SVG/1.1/DTD/svg11.dtd">
<!-- Generated by graphviz version 2.43.0 (0)
 -->
<!-- Title: ieee_9b Pages: 1 -->
<svg width="1038pt" height="715pt"
 viewBox="0.00 0.00 1037.72 715.29" xmlns="http://www.w3.org/2000/svg" xmlns:xlink="http://www.w3.org/1999/xlink">
<g id="graph0" class="graph" transform="scale(1 1) rotate(0) translate(36 679.29)">
<title>ieee_9b</title>
<polygon fill="white" stroke="transparent" points="-36,36 -36,-679.29 1001.72,-679.29 1001.72,36 -36,36"/>
<text text-anchor="start" x="457.86" y="-629.09" font-family="Arial" font-weight="bold" font-size="14.00">ieee_9b</text>
<!-- bus_1 -->
<g id="node1" class="node">
<title>bus_1</title>
<g id="a_node1"><a xlink:title="Bus uid=1 name=b1">
<polygon fill="#d6eaf8" stroke="transparent" points="482.88,-164.25 482.88,-189.25 508.88,-189.25 508.88,-164.25 482.88,-164.25"/>
<polygon fill="none" stroke="#1a5276" points="482.88,-163.75 482.88,-188.75 508.88,-188.75 508.88,-163.75 482.88,-163.75"/>
<text text-anchor="start" x="489.88" y="-174.75" font-family="Arial" font-weight="bold" font-size="10.00">b1</text>
</a>
</g>
</g>
<!-- bus_4 -->
<g id="node4" class="node">
<title>bus_4</title>
<g id="a_node4"><a xlink:title="Bus uid=4 name=b4">
<polygon fill="#d6eaf8" stroke="transparent" points="528.82,-358.79 528.82,-383.79 554.82,-383.79 554.82,-358.79 528.82,-358.79"/>
<polygon fill="none" stroke="#1a5276" points="528.82,-358.29 528.82,-383.29 554.82,-383.29 554.82,-358.29 528.82,-358.29"/>
<text text-anchor="start" x="535.82" y="-369.29" font-family="Arial" font-weight="bold" font-size="10.00">b4</text>
</a>
</g>
</g>
<!-- bus_1&#45;&gt;bus_4 -->
<g id="edge7" class="edge">
<title>bus_1&#45;&gt;bus_4</title>
<path fill="none" stroke="#2c3e50" stroke-width="3.5" d="M509.21,-194.83C544.92,-243.96 546.5,-256.38 542.57,-353.25"/>
<text text-anchor="middle" x="512.75" y="-278.94" font-family="Arial" font-size="9.00">l1_4</text>
<text text-anchor="middle" x="512.75" y="-268.94" font-family="Arial" font-size="9.00">x=0.0576 p.u.</text>
<text text-anchor="middle" x="512.75" y="-258.94" font-family="Arial" font-size="9.00">250 MW</text>
</g>
<!-- bus_2 -->
<g id="node2" class="node">
<title>bus_2</title>
<g id="a_node2"><a xlink:title="Bus uid=2 name=b2">
<polygon fill="#d6eaf8" stroke="transparent" points="782.14,-196.05 782.14,-221.05 808.14,-221.05 808.14,-196.05 782.14,-196.05"/>
<polygon fill="none" stroke="#1a5276" points="782.14,-195.55 782.14,-220.55 808.14,-220.55 808.14,-195.55 782.14,-195.55"/>
<text text-anchor="start" x="789.14" y="-206.55" font-family="Arial" font-weight="bold" font-size="10.00">b2</text>
</a>
</g>
</g>
<!-- bus_7 -->
<g id="node7" class="node">
<title>bus_7</title>
<g id="a_node7"><a xlink:title="Bus uid=7 name=b7">
<polygon fill="#d6eaf8" stroke="transparent" points="680.96,-317.96 680.96,-342.96 706.96,-342.96 706.96,-317.96 680.96,-317.96"/>
<polygon fill="none" stroke="#1a5276" points="680.96,-317.46 680.96,-342.46 706.96,-342.46 706.96,-317.46 680.96,-317.46"/>
<text text-anchor="start" x="687.96" y="-328.46" font-family="Arial" font-weight="bold" font-size="10.00">b7</text>
</a>
</g>
</g>
<!-- bus_2&#45;&gt;bus_7 -->
<g id="edge8" class="edge">
<title>bus_2&#45;&gt;bus_7</title>
<path fill="none" stroke="#2c3e50" stroke-width="4" d="M788.81,-226.68C776.29,-261.12 768.02,-270.58 716.43,-312.36"/>
<text text-anchor="middle" x="739.27" y="-289.57" font-family="Arial" font-size="9.00">l2_7</text>
<text text-anchor="middle" x="739.27" y="-279.57" font-family="Arial" font-size="9.00">x=0.0625 p.u.</text>
<text text-anchor="middle" x="739.27" y="-269.57" font-family="Arial" font-size="9.00">300 MW</text>
</g>
<!-- bus_3 -->
<g id="node3" class="node">
<title>bus_3</title>
<g id="a_node3"><a xlink:title="Bus uid=3 name=b3">
<polygon fill="#d6eaf8" stroke="transparent" points="183.12,-341.1 183.12,-366.1 209.12,-366.1 209.12,-341.1 183.12,-341.1"/>
<polygon fill="none" stroke="#1a5276" points="183.12,-340.6 183.12,-365.6 209.12,-365.6 209.12,-340.6 183.12,-340.6"/>
<text text-anchor="start" x="190.12" y="-351.6" font-family="Arial" font-weight="bold" font-size="10.00">b3</text>
</a>
</g>
</g>
<!-- bus_9 -->
<g id="node9" class="node">
<title>bus_9</title>
<g id="a_node9"><a xlink:title="Bus uid=9 name=b9">
<polygon fill="#d6eaf8" stroke="transparent" points="325.55,-396.63 325.55,-421.63 351.55,-421.63 351.55,-396.63 325.55,-396.63"/>
<polygon fill="none" stroke="#1a5276" points="325.55,-396.13 325.55,-421.13 351.55,-421.13 351.55,-396.13 325.55,-396.13"/>
<text text-anchor="start" x="332.55" y="-407.13" font-family="Arial" font-weight="bold" font-size="10.00">b9</text>
</a>
</g>
</g>
<!-- bus_3&#45;&gt;bus_9 -->
<g id="edge9" class="edge">
<title>bus_3&#45;&gt;bus_9</title>
<path fill="none" stroke="#2c3e50" stroke-width="3.7" d="M217.07,-371.62C238.99,-389.14 253.8,-393.52 311.2,-404.14"/>
<text text-anchor="middle" x="222.83" y="-413.27" font-family="Arial" font-size="9.00">l3_9</text>
<text text-anchor="middle" x="222.83" y="-403.27" font-family="Arial" font-size="9.00">x=0.0586 p.u.</text>
<text text-anchor="middle" x="222.83" y="-393.27" font-family="Arial" font-size="9.00">270 MW</text>
</g>
<!-- bus_5 -->
<g id="node5" class="node">
<title>bus_5</title>
<g id="a_node5"><a xlink:title="Bus uid=5 name=b5">
<polygon fill="#d6eaf8" stroke="transparent" points="657.67,-449.4 657.67,-474.4 683.67,-474.4 683.67,-449.4 657.67,-449.4"/>
<polygon fill="none" stroke="#1a5276" points="657.67,-448.9 657.67,-473.9 683.67,-473.9 683.67,-448.9 657.67,-448.9"/>
<text text-anchor="start" x="664.67" y="-459.9" font-family="Arial" font-weight="bold" font-size="10.00">b5</text>
</a>
</g>
</g>
<!-- bus_4&#45;&gt;bus_5 -->
<g id="edge10" class="edge">
<title>bus_4&#45;&gt;bus_5</title>
<path fill="none" stroke="#2c3e50" stroke-width="3.5" d="M566.12,-389.42C610.65,-422.61 626.16,-433.94 643.54,-445.11"/>
<text text-anchor="middle" x="589.51" y="-448.32" font-family="Arial" font-size="9.00">l4_5</text>
<text text-anchor="middle" x="589.51" y="-438.32" font-family="Arial" font-size="9.00">x=0.085 p.u.</text>
<text text-anchor="middle" x="589.51" y="-428.32" font-family="Arial" font-size="9.00">250 MW</text>
</g>
<!-- bus_6 -->
<g id="node6" class="node">
<title>bus_6</title>
<g id="a_node6"><a xlink:title="Bus uid=6 name=b6">
<polygon fill="#d6eaf8" stroke="transparent" points="418.67,-477.3 418.67,-502.3 444.67,-502.3 444.67,-477.3 418.67,-477.3"/>
<polygon fill="none" stroke="#1a5276" points="418.67,-476.8 418.67,-501.8 444.67,-501.8 444.67,-476.8 418.67,-476.8"/>
<text text-anchor="start" x="425.67" y="-487.8" font-family="Arial" font-weight="bold" font-size="10.00">b6</text>
</a>
</g>
</g>
<!-- bus_4&#45;&gt;bus_6 -->
<g id="edge11" class="edge">
<title>bus_4&#45;&gt;bus_6</title>
<path fill="none" stroke="#2c3e50" stroke-width="3.5" d="M531.19,-389.29C496.73,-447.47 487.17,-460.83 459.04,-476.18"/>
<text text-anchor="middle" x="467.24" y="-441.6" font-family="Arial" font-size="9.00">l4_6</text>
<text text-anchor="middle" x="467.24" y="-431.6" font-family="Arial" font-size="9.00">x=0.092 p.u.</text>
<text text-anchor="middle" x="467.24" y="-421.6" font-family="Arial" font-size="9.00">250 MW</text>
</g>
<!-- bus_5&#45;&gt;bus_7 -->
<g id="edge12" class="edge">
<title>bus_5&#45;&gt;bus_7</title>
<path fill="none" stroke="#2c3e50" stroke-width="3.5" d="M682.42,-443.81C704.27,-409.33 705.27,-399.26 696.97,-348.47"/>
<text text-anchor="middle" x="675.5" y="-425.06" font-family="Arial" font-size="9.00">l5_7</text>
<text text-anchor="middle" x="675.5" y="-415.06" font-family="Arial" font-size="9.00">x=0.161 p.u.</text>
<text text-anchor="middle" x="675.5" y="-405.06" font-family="Arial" font-size="9.00">250 MW</text>
</g>
<!-- dem_1 -->
<g id="node13" class="node">
<title>dem_1</title>
<g id="a_node13"><a xlink:title="Demand uid=1 name=d1 lmax=136.3…290.0">
<polygon fill="#fadbd8" stroke="transparent" points="698.16,-582.29 698.16,-616.29 791.16,-616.29 791.16,-582.29 698.16,-582.29"/>
<polygon fill="none" stroke="#c0392b" points="698.66,-582.29 698.66,-616.29 791.66,-616.29 791.66,-582.29 698.66,-582.29"/>
<text text-anchor="start" x="739.16" y="-602.29" font-family="Arial" font-weight="bold" font-size="10.00">d1</text>
<text text-anchor="start" x="705.66" y="-592.29" font-family="Arial" font-weight="bold" font-size="10.00">136.3…290.0 MW</text>
</a>
</g>
</g>
<!-- bus_5&#45;&gt;dem_1 -->
<g id="edge4" class="edge">
<title>bus_5&#45;&gt;dem_1</title>
<path fill="none" stroke="#c0392b" stroke-width="1.5" d="M682.62,-480.17C716.01,-531.25 726.37,-547.91 734.35,-568.48"/>
<polygon fill="#c0392b" stroke="#c0392b" stroke-width="1.5" points="731.1,-569.79 737.8,-577.99 737.68,-567.4 731.1,-569.79"/>
</g>
<!-- bus_6&#45;&gt;bus_9 -->
<g id="edge13" class="edge">
<title>bus_6&#45;&gt;bus_9</title>
<path fill="none" stroke="#2c3e50" stroke-width="3.5" d="M404.28,-480.42C374.61,-469.42 366.99,-461.27 348.36,-427.32"/>
<text text-anchor="middle" x="349.18" y="-485.28" font-family="Arial" font-size="9.00">l6_9</text>
<text text-anchor="middle" x="349.18" y="-475.28" font-family="Arial" font-size="9.00">x=0.17 p.u.</text>
<text text-anchor="middle" x="349.18" y="-465.28" font-family="Arial" font-size="9.00">250 MW</text>
</g>
<!-- bus_8 -->
<g id="node8" class="node">
<title>bus_8</title>
<g id="a_node8"><a xlink:title="Bus uid=8 name=b8">
<polygon fill="#d6eaf8" stroke="transparent" points="484.46,-314.78 484.46,-339.78 510.46,-339.78 510.46,-314.78 484.46,-314.78"/>
<polygon fill="none" stroke="#1a5276" points="484.46,-314.28 484.46,-339.28 510.46,-339.28 510.46,-314.28 484.46,-314.28"/>
<text text-anchor="start" x="491.46" y="-325.28" font-family="Arial" font-weight="bold" font-size="10.00">b8</text>
</a>
</g>
</g>
<!-- bus_7&#45;&gt;bus_8 -->
<g id="edge14" class="edge">
<title>bus_7&#45;&gt;bus_8</title>
<path fill="none" stroke="#2c3e50" stroke-width="3.5" d="M666.78,-332.57C633.3,-334.84 613.69,-334.06 524.52,-328.86"/>
<text text-anchor="middle" x="591.04" y="-326.32" font-family="Arial" font-size="9.00">l7_8</text>
<text text-anchor="middle" x="591.04" y="-316.32" font-family="Arial" font-size="9.00">x=0.072 p.u.</text>
<text text-anchor="middle" x="591.04" y="-306.32" font-family="Arial" font-size="9.00">250 MW</text>
</g>
<!-- dem_2 -->
<g id="node14" class="node">
<title>dem_2</title>
<g id="a_node14"><a xlink:title="Demand uid=2 name=d2 lmax=77.7…210.0">
<polygon fill="#fadbd8" stroke="transparent" points="797.69,-380.25 797.69,-414.25 885.69,-414.25 885.69,-380.25 797.69,-380.25"/>
<polygon fill="none" stroke="#c0392b" points="797.69,-380.25 797.69,-414.25 885.69,-414.25 885.69,-380.25 797.69,-380.25"/>
<text text-anchor="start" x="835.69" y="-400.25" font-family="Arial" font-weight="bold" font-size="10.00">d2</text>
<text text-anchor="start" x="804.69" y="-390.25" font-family="Arial" font-weight="bold" font-size="10.00">77.7…210.0 MW</text>
</a>
</g>
</g>
<!-- bus_7&#45;&gt;dem_2 -->
<g id="edge5" class="edge">
<title>bus_7&#45;&gt;dem_2</title>
<path fill="none" stroke="#c0392b" stroke-width="1.5" d="M721.03,-340.56C761.93,-355.85 782.62,-363.85 798.34,-371.45"/>
<polygon fill="#c0392b" stroke="#c0392b" stroke-width="1.5" points="797.12,-374.76 807.62,-376.2 800.31,-368.53 797.12,-374.76"/>
</g>
<!-- bus_8&#45;&gt;bus_9 -->
<g id="edge15" class="edge">
<title>bus_8&#45;&gt;bus_9</title>
<path fill="none" stroke="#2c3e50" stroke-width="3.5" d="M470.29,-343.86C408.89,-381.25 392.29,-390.59 365.78,-400.06"/>
<text text-anchor="middle" x="376.95" y="-375.23" font-family="Arial" font-size="9.00">l8_9</text>
<text text-anchor="middle" x="376.95" y="-365.23" font-family="Arial" font-size="9.00">x=0.1008 p.u.</text>
<text text-anchor="middle" x="376.95" y="-355.23" font-family="Arial" font-size="9.00">250 MW</text>
</g>
<!-- dem_3 -->
<g id="node15" class="node">
<title>dem_3</title>
<g id="a_node15"><a xlink:title="Demand uid=3 name=d3 lmax=74.9…197.0">
<polygon fill="#fadbd8" stroke="transparent" points="223.81,-543.72 223.81,-577.72 311.81,-577.72 311.81,-543.72 223.81,-543.72"/>
<polygon fill="none" stroke="#c0392b" points="223.81,-543.72 223.81,-577.72 311.81,-577.72 311.81,-543.72 223.81,-543.72"/>
<text text-anchor="start" x="261.81" y="-563.72" font-family="Arial" font-weight="bold" font-size="10.00">d3</text>
<text text-anchor="start" x="230.81" y="-553.72" font-family="Arial" font-weight="bold" font-size="10.00">74.9…197.0 MW</text>
</a>
</g>
</g>
<!-- bus_9&#45;&gt;dem_3 -->
<g id="edge6" class="edge">
<title>bus_9&#45;&gt;dem_3</title>
<path fill="none" stroke="#c0392b" stroke-width="1.5" d="M327.64,-427.35C291.86,-487.2 282.1,-504.64 275.17,-529.37"/>
<polygon fill="#c0392b" stroke="#c0392b" stroke-width="1.5" points="271.72,-528.74 272.6,-539.3 278.49,-530.49 271.72,-528.74"/>
</g>
<!-- gen_1 -->
<g id="node10" class="node">
<title>gen_1</title>
<g id="a_node10"><a xlink:title="Generator uid=1 type=thermal pmax=250 gcost=20">
<polygon fill="#fef9e7" stroke="transparent" points="408.57,-4 408.57,-38 511.57,-38 511.57,-4 408.57,-4"/>
<polygon fill="none" stroke="#e67e22" points="409.07,-4 409.07,-38 512.07,-38 512.07,-4 409.07,-4"/>
<text text-anchor="start" x="454.57" y="-24" font-family="Arial" font-weight="bold" font-size="10.00">g1</text>
<text text-anchor="start" x="416.07" y="-14" font-family="Arial" font-weight="bold" font-size="10.00">250 MW &#160;20 $/MWh</text>
</a>
</g>
</g>
<!-- gen_1&#45;&gt;bus_1 -->
<g id="edge1" class="edge">
<title>gen_1&#45;&gt;bus_1</title>
<path fill="none" stroke="#e67e22" stroke-width="1.5" d="M467.87,-42.21C476.68,-67.2 479.85,-82.75 491.05,-148.3"/>
<polygon fill="#e67e22" stroke="#e67e22" stroke-width="1.5" points="487.63,-149.08 492.76,-158.35 494.53,-147.9 487.63,-149.08"/>
</g>
<!-- gen_2 -->
<g id="node11" class="node">
<title>gen_2</title>
<g id="a_node11"><a xlink:title="Generator uid=2 type=thermal pmax=300 gcost=35">
<polygon fill="#fef9e7" stroke="transparent" points="858.72,-98.75 858.72,-132.75 961.72,-132.75 961.72,-98.75 858.72,-98.75"/>
<polygon fill="none" stroke="#e67e22" points="859.22,-98.75 859.22,-132.75 962.22,-132.75 962.22,-98.75 859.22,-98.75"/>
<text text-anchor="start" x="904.72" y="-118.75" font-family="Arial" font-weight="bold" font-size="10.00">g2</text>
<text text-anchor="start" x="866.22" y="-108.75" font-family="Arial" font-weight="bold" font-size="10.00">300 MW &#160;35 $/MWh</text>
</a>
</g>
</g>
<!-- gen_2&#45;&gt;bus_2 -->
<g id="edge2" class="edge">
<title>gen_2&#45;&gt;bus_2</title>
<path fill="none" stroke="#e67e22" stroke-width="1.5" d="M891.76,-136.85C878.6,-150.8 866.06,-160.36 830.34,-184.72"/>
<polygon fill="#e67e22" stroke="#e67e22" stroke-width="1.5" points="828.13,-181.99 821.83,-190.51 832.07,-187.78 828.13,-181.99"/>
</g>
<!-- gen_3 -->
<g id="node12" class="node">
<title>gen_3</title>
<g id="a_node12"><a xlink:title="Generator uid=3 type=thermal pmax=270 gcost=0">
<polygon fill="#fef9e7" stroke="transparent" points="4,-313.77 4,-347.77 102,-347.77 102,-313.77 4,-313.77"/>
<polygon fill="none" stroke="#e67e22" points="4,-313.77 4,-347.77 102,-347.77 102,-313.77 4,-313.77"/>
<text text-anchor="start" x="47" y="-333.77" font-family="Arial" font-weight="bold" font-size="10.00">g3</text>
<text text-anchor="start" x="11" y="-323.77" font-family="Arial" font-weight="bold" font-size="10.00">270 MW &#160;0 $/MWh</text>
</a>
</g>
</g>
<!-- gen_3&#45;&gt;bus_3 -->
<g id="edge3" class="edge">
<title>gen_3&#45;&gt;bus_3</title>
<path fill="none" stroke="#e67e22" stroke-width="1.5" d="M106.35,-344.65C118.61,-346.46 134.38,-348.07 158.59,-350.27"/>
<polygon fill="#e67e22" stroke="#e67e22" stroke-width="1.5" points="158.41,-353.76 168.69,-351.17 159.04,-346.79 158.41,-353.76"/>
</g>
</g>
</svg>
