<?xml version="1.0" encoding="UTF-8" standalone="no"?>
<!DOCTYPE svg PUBLIC "-//W3C//DTD SVG 1.1//EN"
 "http://www.w3.org/Graphics/SVG/1.1/DTD/svg11.dtd">
<!-- Generated by graphviz version 2.43.0 (0)
 -->
<!-- Title: ieee_4b_ori Pages: 1 -->
<svg width="317pt" height="787pt"
 viewBox="0.00 0.00 317.00 787.00" xmlns="http://www.w3.org/2000/svg" xmlns:xlink="http://www.w3.org/1999/xlink">
<g id="graph0" class="graph" transform="scale(1 1) rotate(0) translate(36 751)">
<title>ieee_4b_ori</title>
<polygon fill="white" stroke="transparent" points="-36,36 -36,-751 281,-751 281,36 -36,36"/>
<text text-anchor="start" x="85" y="-700.8" font-family="Arial" font-weight="bold" font-size="14.00">ieee_4b_ori</text>
<!-- bus_1 -->
<g id="node1" class="node">
<title>bus_1</title>
<g id="a_node1"><a xlink:title="Bus uid=1 name=b1">
<polygon fill="#d6eaf8" stroke="transparent" points="176.5,-543.5 176.5,-568.5 202.5,-568.5 202.5,-543.5 176.5,-543.5"/>
<polygon fill="none" stroke="#1a5276" points="176.5,-543 176.5,-568 202.5,-568 202.5,-543 176.5,-543"/>
<text text-anchor="start" x="183.5" y="-554" font-family="Arial" font-weight="bold" font-size="10.00">b1</text>
</a>
</g>
</g>
<!-- bus_2 -->
<g id="node2" class="node">
<title>bus_2</title>
<g id="a_node2"><a xlink:title="Bus uid=2 name=b2">
<polygon fill="#d6eaf8" stroke="transparent" points="57.5,-402.5 57.5,-427.5 83.5,-427.5 83.5,-402.5 57.5,-402.5"/>
<polygon fill="none" stroke="#1a5276" points="57.5,-402 57.5,-427 83.5,-427 83.5,-402 57.5,-402"/>
<text text-anchor="start" x="64.5" y="-413" font-family="Arial" font-weight="bold" font-size="10.00">b2</text>
</a>
</g>
</g>
<!-- bus_1&#45;&gt;bus_2 -->
<g id="edge5" class="edge">
<title>bus_1&#45;&gt;bus_2</title>
<path fill="none" stroke="#2c3e50" stroke-width="4" d="M162.43,-539.69C132.24,-520.14 121.97,-504.67 80.98,-433.28"/>
<text text-anchor="middle" x="148.5" y="-491.8" font-family="Arial" font-size="9.00">l1_2</text>
<text text-anchor="middle" x="148.5" y="-481.8" font-family="Arial" font-size="9.00">x=0.02 p.u.</text>
<text text-anchor="middle" x="148.5" y="-471.8" font-family="Arial" font-size="9.00">300 MW</text>
</g>
<!-- bus_3 -->
<g id="node3" class="node">
<title>bus_3</title>
<g id="a_node3"><a xlink:title="Bus uid=3 name=b3">
<polygon fill="#d6eaf8" stroke="transparent" points="171.5,-264.5 171.5,-289.5 197.5,-289.5 197.5,-264.5 171.5,-264.5"/>
<polygon fill="none" stroke="#1a5276" points="171.5,-264 171.5,-289 197.5,-289 197.5,-264 171.5,-264"/>
<text text-anchor="start" x="178.5" y="-275" font-family="Arial" font-weight="bold" font-size="10.00">b3</text>
</a>
</g>
</g>
<!-- bus_1&#45;&gt;bus_3 -->
<g id="edge6" class="edge">
<title>bus_1&#45;&gt;bus_3</title>
<path fill="none" stroke="#2c3e50" stroke-width="4" d="M195.95,-537.88C223.44,-459.91 222.18,-446.77 188.53,-295.16"/>
<text text-anchor="middle" x="221.5" y="-422.8" font-family="Arial" font-size="9.00">l1_3</text>
<text text-anchor="middle" x="221.5" y="-412.8" font-family="Arial" font-size="9.00">x=0.02 p.u.</text>
<text text-anchor="middle" x="221.5" y="-402.8" font-family="Arial" font-size="9.00">300 MW</text>
</g>
<!-- bus_2&#45;&gt;bus_3 -->
<g id="edge7" class="edge">
<title>bus_2&#45;&gt;bus_3</title>
<path fill="none" stroke="#2c3e50" stroke-width="3" d="M94.69,-396.96C156.1,-350.91 164.16,-341.21 178.82,-295.28"/>
<text text-anchor="middle" x="148.5" y="-353.8" font-family="Arial" font-size="9.00">l2_3</text>
<text text-anchor="middle" x="148.5" y="-343.8" font-family="Arial" font-size="9.00">x=0.03 p.u.</text>
<text text-anchor="middle" x="148.5" y="-333.8" font-family="Arial" font-size="9.00">200 MW</text>
</g>
<!-- bus_4 -->
<g id="node4" class="node">
<title>bus_4</title>
<g id="a_node4"><a xlink:title="Bus uid=4 name=b4">
<polygon fill="#d6eaf8" stroke="transparent" points="64.5,-123.5 64.5,-148.5 90.5,-148.5 90.5,-123.5 64.5,-123.5"/>
<polygon fill="none" stroke="#1a5276" points="64.5,-123 64.5,-148 90.5,-148 90.5,-123 64.5,-123"/>
<text text-anchor="start" x="71.5" y="-134" font-family="Arial" font-weight="bold" font-size="10.00">b4</text>
</a>
</g>
</g>
<!-- bus_2&#45;&gt;bus_4 -->
<g id="edge8" class="edge">
<title>bus_2&#45;&gt;bus_4</title>
<path fill="none" stroke="#2c3e50" stroke-width="3" d="M67.75,-396.87C44.24,-241.51 43.52,-227.66 70.65,-154.32"/>
<text text-anchor="middle" x="78.5" y="-284.8" font-family="Arial" font-size="9.00">l2_4</text>
<text text-anchor="middle" x="78.5" y="-274.8" font-family="Arial" font-size="9.00">x=0.02 p.u.</text>
<text text-anchor="middle" x="78.5" y="-264.8" font-family="Arial" font-size="9.00">200 MW</text>
</g>
<!-- bus_3&#45;&gt;bus_4 -->
<g id="edge9" class="edge">
<title>bus_3&#45;&gt;bus_4</title>
<path fill="none" stroke="#2c3e50" stroke-width="2.5" d="M175.71,-258.91C141.97,-189.57 132.88,-173.7 104.86,-153.86"/>
<text text-anchor="middle" x="148.5" y="-215.8" font-family="Arial" font-size="9.00">l3_4</text>
<text text-anchor="middle" x="148.5" y="-205.8" font-family="Arial" font-size="9.00">x=0.03 p.u.</text>
<text text-anchor="middle" x="148.5" y="-195.8" font-family="Arial" font-size="9.00">150 MW</text>
</g>
<!-- dem_1 -->
<g id="node7" class="node">
<title>dem_1</title>
<g id="a_node7"><a xlink:title="Demand uid=1 name=d3 lmax=150">
<polygon fill="#fadbd8" stroke="transparent" points="173,-119 173,-153 224,-153 224,-119 173,-119"/>
<polygon fill="none" stroke="#c0392b" points="173.5,-119 173.5,-153 224.5,-153 224.5,-119 173.5,-119"/>
<text text-anchor="start" x="193" y="-139" font-family="Arial" font-weight="bold" font-size="10.00">d3</text>
<text text-anchor="start" x="180.5" y="-129" font-family="Arial" font-weight="bold" font-size="10.00">150 MW</text>
</a>
</g>
</g>
<!-- bus_3&#45;&gt;dem_1 -->
<g id="edge3" class="edge">
<title>bus_3&#45;&gt;dem_1</title>
<path fill="none" stroke="#c0392b" stroke-width="1.5" d="M188.24,-258.63C199.11,-205.13 202.33,-187.09 201.6,-167.34"/>
<polygon fill="#c0392b" stroke="#c0392b" stroke-width="1.5" points="205.09,-167.1 200.93,-157.35 198.1,-167.56 205.09,-167.1"/>
</g>
<!-- dem_2 -->
<g id="node8" class="node">
<title>dem_2</title>
<g id="a_node8"><a xlink:title="Demand uid=2 name=d4 lmax=100">
<polygon fill="#fadbd8" stroke="transparent" points="52,-4 52,-38 103,-38 103,-4 52,-4"/>
<polygon fill="none" stroke="#c0392b" points="52.5,-4 52.5,-38 103.5,-38 103.5,-4 52.5,-4"/>
<text text-anchor="start" x="72" y="-24" font-family="Arial" font-weight="bold" font-size="10.00">d4</text>
<text text-anchor="start" x="59.5" y="-14" font-family="Arial" font-weight="bold" font-size="10.00">100 MW</text>
</a>
</g>
</g>
<!-- bus_4&#45;&gt;dem_2 -->
<g id="edge4" class="edge">
<title>bus_4&#45;&gt;dem_2</title>
<path fill="none" stroke="#c0392b" stroke-width="1.5" d="M76.64,-117.82C74.93,-81.59 74.32,-65.57 74.79,-52.19"/>
<polygon fill="#c0392b" stroke="#c0392b" stroke-width="1.5" points="78.29,-52.38 75.37,-42.19 71.3,-51.97 78.29,-52.38"/>
</g>
<!-- gen_1 -->
<g id="node5" class="node">
<title>gen_1</title>
<g id="a_node5"><a xlink:title="Generator uid=1 type=thermal pmax=300 gcost=20">
<polygon fill="#fef9e7" stroke="transparent" points="138,-654 138,-688 241,-688 241,-654 138,-654"/>
<polygon fill="none" stroke="#e67e22" points="138.5,-654 138.5,-688 241.5,-688 241.5,-654 138.5,-654"/>
<text text-anchor="start" x="184" y="-674" font-family="Arial" font-weight="bold" font-size="10.00">g1</text>
<text text-anchor="start" x="145.5" y="-664" font-family="Arial" font-weight="bold" font-size="10.00">300 MW &#160;20 $/MWh</text>
</a>
</g>
</g>
<!-- gen_1&#45;&gt;bus_1 -->
<g id="edge1" class="edge">
<title>gen_1&#45;&gt;bus_1</title>
<path fill="none" stroke="#e67e22" stroke-width="1.5" d="M192.58,-649.99C194.37,-634.5 194,-621.86 191.47,-584.35"/>
<polygon fill="#e67e22" stroke="#e67e22" stroke-width="1.5" points="194.95,-584 190.77,-574.27 187.97,-584.48 194.95,-584"/>
</g>
<!-- gen_2 -->
<g id="node6" class="node">
<title>gen_2</title>
<g id="a_node6"><a xlink:title="Generator uid=2 type=thermal pmax=200 gcost=35">
<polygon fill="#fef9e7" stroke="transparent" points="4,-539 4,-573 107,-573 107,-539 4,-539"/>
<polygon fill="none" stroke="#e67e22" points="4.5,-539 4.5,-573 107.5,-573 107.5,-539 4.5,-539"/>
<text text-anchor="start" x="50" y="-559" font-family="Arial" font-weight="bold" font-size="10.00">g2</text>
<text text-anchor="start" x="11.5" y="-549" font-family="Arial" font-weight="bold" font-size="10.00">200 MW &#160;35 $/MWh</text>
</a>
</g>
</g>
<!-- gen_2&#45;&gt;bus_2 -->
<g id="edge2" class="edge">
<title>gen_2&#45;&gt;bus_2</title>
<path fill="none" stroke="#e67e22" stroke-width="1.5" d="M53.94,-534.77C52.72,-511.7 54.69,-497.57 65.12,-442.96"/>
<polygon fill="#e67e22" stroke="#e67e22" stroke-width="1.5" points="68.57,-443.55 67.02,-433.07 61.7,-442.23 68.57,-443.55"/>
</g>
</g>
</svg>
