<?xml version="1.0" encoding="UTF-8" standalone="no"?>
<!DOCTYPE svg PUBLIC "-//W3C//DTD SVG 1.1//EN"
 "http://www.w3.org/Graphics/SVG/1.1/DTD/svg11.dtd">
<!-- Generated by graphviz version 2.43.0 (0)
 -->
<!-- Title: ieee_9b Pages: 1 -->
<svg width="1026pt" height="710pt"
 viewBox="0.00 0.00 1026.10 710.49" xmlns="http://www.w3.org/2000/svg" xmlns:xlink="http://www.w3.org/1999/xlink">
<g id="graph0" class="graph" transform="scale(1 1) rotate(0) translate(36 674.49)">
<title>ieee_9b</title>
<polygon fill="white" stroke="transparent" points="-36,36 -36,-674.49 990.1,-674.49 990.1,36 -36,36"/>
<text text-anchor="start" x="452.05" y="-624.29" font-family="Arial" font-weight="bold" font-size="14.00">ieee_9b</text>
<!-- bus_1 -->
<g id="node1" class="node">
<title>bus_1</title>
<g id="a_node1"><a xlink:title="Bus uid=1 name=b1">
<polygon fill="#d6eaf8" stroke="transparent" points="478.21,-162.96 478.21,-187.96 504.21,-187.96 504.21,-162.96 478.21,-162.96"/>
<polygon fill="none" stroke="#1a5276" points="478.21,-162.46 478.21,-187.46 504.21,-187.46 504.21,-162.46 478.21,-162.46"/>
<text text-anchor="start" x="485.21" y="-173.46" font-family="Arial" font-weight="bold" font-size="10.00">b1</text>
</a>
</g>
</g>
<!-- bus_4 -->
<g id="node4" class="node">
<title>bus_4</title>
<g id="a_node4"><a xlink:title="Bus uid=4 name=b4">
<polygon fill="#d6eaf8" stroke="transparent" points="523.95,-356.06 523.95,-381.06 549.95,-381.06 549.95,-356.06 523.95,-356.06"/>
<polygon fill="none" stroke="#1a5276" points="523.95,-355.56 523.95,-380.56 549.95,-380.56 549.95,-355.56 523.95,-355.56"/>
<text text-anchor="start" x="530.95" y="-366.56" font-family="Arial" font-weight="bold" font-size="10.00">b4</text>
</a>
</g>
</g>
<!-- bus_1&#45;&gt;bus_4 -->
<g id="edge7" class="edge">
<title>bus_1&#45;&gt;bus_4</title>
<path fill="none" stroke="#2c3e50" stroke-width="3.5" d="M504.6,-193.54C540.44,-242.64 542.03,-254.98 537.77,-350.44"/>
<text text-anchor="middle" x="508.22" y="-277.41" font-family="Arial" font-size="9.00">l1_4</text>
<text text-anchor="middle" x="508.22" y="-267.41" font-family="Arial" font-size="9.00">x=0.0576 p.u.</text>
<text text-anchor="middle" x="508.22" y="-257.41" font-family="Arial" font-size="9.00">250 MW</text>
</g>
<!-- bus_2 -->
<g id="node2" class="node">
<title>bus_2</title>
<g id="a_node2"><a xlink:title="Bus uid=2 name=b2">
<polygon fill="#d6eaf8" stroke="transparent" points="774.99,-194.49 774.99,-219.49 800.99,-219.49 800.99,-194.49 774.99,-194.49"/>
<polygon fill="none" stroke="#1a5276" points="774.99,-193.99 774.99,-218.99 800.99,-218.99 800.99,-193.99 774.99,-193.99"/>
<text text-anchor="start" x="781.99" y="-204.99" font-family="Arial" font-weight="bold" font-size="10.00">b2</text>
</a>
</g>
</g>
<!-- bus_7 -->
<g id="node7" class="node">
<title>bus_7</title>
<g id="a_node7"><a xlink:title="Bus uid=7 name=b7">
<polygon fill="#d6eaf8" stroke="transparent" points="674.64,-315.4 674.64,-340.4 700.64,-340.4 700.64,-315.4 674.64,-315.4"/>
<polygon fill="none" stroke="#1a5276" points="674.64,-314.9 674.64,-339.9 700.64,-339.9 700.64,-314.9 674.64,-314.9"/>
<text text-anchor="start" x="681.64" y="-325.9" font-family="Arial" font-weight="bold" font-size="10.00">b7</text>
</a>
</g>
</g>
<!-- bus_2&#45;&gt;bus_7 -->
<g id="edge8" class="edge">
<title>bus_2&#45;&gt;bus_7</title>
<path fill="none" stroke="#2c3e50" stroke-width="4" d="M781.61,-225.23C769.28,-259.13 761,-268.59 710.22,-309.71"/>
<text text-anchor="middle" x="732.33" y="-287.57" font-family="Arial" font-size="9.00">l2_7</text>
<text text-anchor="middle" x="732.33" y="-277.57" font-family="Arial" font-size="9.00">x=0.0625 p.u.</text>
<text text-anchor="middle" x="732.33" y="-267.57" font-family="Arial" font-size="9.00">300 MW</text>
</g>
<!-- bus_3 -->
<g id="node3" class="node">
<title>bus_3</title>
<g id="a_node3"><a xlink:title="Bus uid=3 name=b3">
<polygon fill="#d6eaf8" stroke="transparent" points="180.93,-338.34 180.93,-363.34 206.93,-363.34 206.93,-338.34 180.93,-338.34"/>
<polygon fill="none" stroke="#1a5276" points="180.93,-337.84 180.93,-362.84 206.93,-362.84 206.93,-337.84 180.93,-337.84"/>
<text text-anchor="start" x="187.93" y="-348.84" font-family="Arial" font-weight="bold" font-size="10.00">b3</text>
</a>
</g>
</g>
<!-- bus_9 -->
<g id="node9" class="node">
<title>bus_9</title>
<g id="a_node9"><a xlink:title="Bus uid=9 name=b9">
<polygon fill="#d6eaf8" stroke="transparent" points="322.18,-393.41 322.18,-418.41 348.18,-418.41 348.18,-393.41 322.18,-393.41"/>
<polygon fill="none" stroke="#1a5276" points="322.18,-392.91 322.18,-417.91 348.18,-417.91 348.18,-392.91 322.18,-392.91"/>
<text text-anchor="start" x="329.18" y="-403.91" font-family="Arial" font-weight="bold" font-size="10.00">b9</text>
</a>
</g>
</g>
<!-- bus_3&#45;&gt;bus_9 -->
<g id="edge9" class="edge">
<title>bus_3&#45;&gt;bus_9</title>
<path fill="none" stroke="#2c3e50" stroke-width="3.7" d="M215.08,-369.03C236.65,-386.2 251.48,-390.54 308.18,-401"/>
<text text-anchor="middle" x="220.45" y="-410.33" font-family="Arial" font-size="9.00">l3_9</text>
<text text-anchor="middle" x="220.45" y="-400.33" font-family="Arial" font-size="9.00">x=0.0586 p.u.</text>
<text text-anchor="middle" x="220.45" y="-390.33" font-family="Arial" font-size="9.00">270 MW</text>
</g>
<!-- bus_5 -->
<g id="node5" class="node">
<title>bus_5</title>
<g id="a_node5"><a xlink:title="Bus uid=5 name=b5">
<polygon fill="#d6eaf8" stroke="transparent" points="651.55,-445.75 651.55,-470.75 677.55,-470.75 677.55,-445.75 651.55,-445.75"/>
<polygon fill="none" stroke="#1a5276" points="651.55,-445.25 651.55,-470.25 677.55,-470.25 677.55,-445.25 651.55,-445.25"/>
<text text-anchor="start" x="658.55" y="-456.25" font-family="Arial" font-weight="bold" font-size="10.00">b5</text>
</a>
</g>
</g>
<!-- bus_4&#45;&gt;bus_5 -->
<g id="edge10" class="edge">
<title>bus_4&#45;&gt;bus_5</title>
<path fill="none" stroke="#2c3e50" stroke-width="3.5" d="M561.46,-386.79C605.07,-419.2 620.46,-430.4 637.49,-441.4"/>
<text text-anchor="middle" x="583.94" y="-444.92" font-family="Arial" font-size="9.00">l4_5</text>
<text text-anchor="middle" x="583.94" y="-434.92" font-family="Arial" font-size="9.00">x=0.085 p.u.</text>
<text text-anchor="middle" x="583.94" y="-424.92" font-family="Arial" font-size="9.00">250 MW</text>
</g>
<!-- bus_6 -->
<g id="node6" class="node">
<title>bus_6</title>
<g id="a_node6"><a xlink:title="Bus uid=6 name=b6">
<polygon fill="#d6eaf8" stroke="transparent" points="414.53,-473.41 414.53,-498.41 440.53,-498.41 440.53,-473.41 414.53,-473.41"/>
<polygon fill="none" stroke="#1a5276" points="414.53,-472.91 414.53,-497.91 440.53,-497.91 440.53,-472.91 414.53,-472.91"/>
<text text-anchor="start" x="421.53" y="-483.91" font-family="Arial" font-weight="bold" font-size="10.00">b6</text>
</a>
</g>
</g>
<!-- bus_4&#45;&gt;bus_6 -->
<g id="edge11" class="edge">
<title>bus_4&#45;&gt;bus_6</title>
<path fill="none" stroke="#2c3e50" stroke-width="3.5" d="M526.19,-386.86C492.38,-444.13 482.9,-457.32 454.84,-472.46"/>
<text text-anchor="middle" x="462.86" y="-438.26" font-family="Arial" font-size="9.00">l4_6</text>
<text text-anchor="middle" x="462.86" y="-428.26" font-family="Arial" font-size="9.00">x=0.092 p.u.</text>
<text text-anchor="middle" x="462.86" y="-418.26" font-family="Arial" font-size="9.00">250 MW</text>
</g>
<!-- bus_5&#45;&gt;bus_7 -->
<g id="edge12" class="edge">
<title>bus_5&#45;&gt;bus_7</title>
<path fill="none" stroke="#2c3e50" stroke-width="3.5" d="M676.37,-440.03C697.85,-406.08 698.86,-395.99 690.68,-346.03"/>
<text text-anchor="middle" x="669.15" y="-421.83" font-family="Arial" font-size="9.00">l5_7</text>
<text text-anchor="middle" x="669.15" y="-411.83" font-family="Arial" font-size="9.00">x=0.161 p.u.</text>
<text text-anchor="middle" x="669.15" y="-401.83" font-family="Arial" font-size="9.00">250 MW</text>
</g>
<!-- dem_1 -->
<g id="node13" class="node">
<title>dem_1</title>
<g id="a_node13"><a xlink:title="Demand uid=1 name=d1 lmax=136.3…290.0">
<polygon fill="#fadbd8" stroke="transparent" points="691.42,-577.49 691.42,-611.49 784.42,-611.49 784.42,-577.49 691.42,-577.49"/>
<polygon fill="none" stroke="#c0392b" points="691.92,-577.49 691.92,-611.49 784.92,-611.49 784.92,-577.49 691.92,-577.49"/>
<text text-anchor="start" x="732.42" y="-597.49" font-family="Arial" font-weight="bold" font-size="10.00">d1</text>
<text text-anchor="start" x="698.92" y="-587.49" font-family="Arial" font-weight="bold" font-size="10.00">136.3…290.0 MW</text>
</a>
</g>
</g>
<!-- bus_5&#45;&gt;dem_1 -->
<g id="edge4" class="edge">
<title>bus_5&#45;&gt;dem_1</title>
<path fill="none" stroke="#c0392b" stroke-width="1.5" d="M676.41,-476.34C709.55,-526.97 719.84,-543.48 727.73,-563.9"/>
<polygon fill="#c0392b" stroke="#c0392b" stroke-width="1.5" points="724.45,-565.13 731.14,-573.35 731.03,-562.75 724.45,-565.13"/>
</g>
<!-- bus_6&#45;&gt;bus_9 -->
<g id="edge13" class="edge">
<title>bus_6&#45;&gt;bus_9</title>
<path fill="none" stroke="#2c3e50" stroke-width="3.5" d="M400.42,-476.64C371.05,-465.78 363.49,-457.69 344.95,-423.97"/>
<text text-anchor="middle" x="345.62" y="-481.68" font-family="Arial" font-size="9.00">l6_9</text>
<text text-anchor="middle" x="345.62" y="-471.68" font-family="Arial" font-size="9.00">x=0.17 p.u.</text>
<text text-anchor="middle" x="345.62" y="-461.68" font-family="Arial" font-size="9.00">250 MW</text>
</g>
<!-- bus_8 -->
<g id="node8" class="node">
<title>bus_8</title>
<g id="a_node8"><a xlink:title="Bus uid=8 name=b8">
<polygon fill="#d6eaf8" stroke="transparent" points="479.59,-312.06 479.59,-337.06 505.59,-337.06 505.59,-312.06 479.59,-312.06"/>
<polygon fill="none" stroke="#1a5276" points="479.59,-311.56 479.59,-336.56 505.59,-336.56 505.59,-311.56 479.59,-311.56"/>
<text text-anchor="start" x="486.59" y="-322.56" font-family="Arial" font-weight="bold" font-size="10.00">b8</text>
</a>
</g>
</g>
<!-- bus_7&#45;&gt;bus_8 -->
<g id="edge14" class="edge">
<title>bus_7&#45;&gt;bus_8</title>
<path fill="none" stroke="#2c3e50" stroke-width="3.5" d="M660.41,-329.92C627.37,-332.06 607.78,-331.27 519.68,-326.14"/>
<text text-anchor="middle" x="585.19" y="-323.56" font-family="Arial" font-size="9.00">l7_8</text>
<text text-anchor="middle" x="585.19" y="-313.56" font-family="Arial" font-size="9.00">x=0.072 p.u.</text>
<text text-anchor="middle" x="585.19" y="-303.56" font-family="Arial" font-size="9.00">250 MW</text>
</g>
<!-- dem_2 -->
<g id="node14" class="node">
<title>dem_2</title>
<g id="a_node14"><a xlink:title="Demand uid=2 name=d2 lmax=77.7…210.0">
<polygon fill="#fadbd8" stroke="transparent" points="790.15,-377.13 790.15,-411.13 878.15,-411.13 878.15,-377.13 790.15,-377.13"/>
<polygon fill="none" stroke="#c0392b" points="790.15,-377.13 790.15,-411.13 878.15,-411.13 878.15,-377.13 790.15,-377.13"/>
<text text-anchor="start" x="828.15" y="-397.13" font-family="Arial" font-weight="bold" font-size="10.00">d2</text>
<text text-anchor="start" x="797.15" y="-387.13" font-family="Arial" font-weight="bold" font-size="10.00">77.7…210.0 MW</text>
</a>
</g>
</g>
<!-- bus_7&#45;&gt;dem_2 -->
<g id="edge5" class="edge">
<title>bus_7&#45;&gt;dem_2</title>
<path fill="none" stroke="#c0392b" stroke-width="1.5" d="M714.74,-338C754.93,-353.01 775.39,-360.92 790.91,-368.41"/>
<polygon fill="#c0392b" stroke="#c0392b" stroke-width="1.5" points="789.58,-371.66 800.08,-373.08 792.75,-365.42 789.58,-371.66"/>
</g>
<!-- bus_8&#45;&gt;bus_9 -->
<g id="edge15" class="edge">
<title>bus_8&#45;&gt;bus_9</title>
<path fill="none" stroke="#2c3e50" stroke-width="3.5" d="M465.46,-341.23C404.93,-378.36 388.53,-387.63 362.21,-396.98"/>
<text text-anchor="middle" x="373.01" y="-372.32" font-family="Arial" font-size="9.00">l8_9</text>
<text text-anchor="middle" x="373.01" y="-362.32" font-family="Arial" font-size="9.00">x=0.1008 p.u.</text>
<text text-anchor="middle" x="373.01" y="-352.32" font-family="Arial" font-size="9.00">250 MW</text>
</g>
<!-- dem_3 -->
<g id="node15" class="node">
<title>dem_3</title>
<g id="a_node15"><a xlink:title="Demand uid=3 name=d3 lmax=74.9…197.0">
<polygon fill="#fadbd8" stroke="transparent" points="221.03,-539.24 221.03,-573.24 309.03,-573.24 309.03,-539.24 221.03,-539.24"/>
<polygon fill="none" stroke="#c0392b" points="221.03,-539.24 221.03,-573.24 309.03,-573.24 309.03,-539.24 221.03,-539.24"/>
<text text-anchor="start" x="259.03" y="-559.24" font-family="Arial" font-weight="bold" font-size="10.00">d3</text>
<text text-anchor="start" x="228.03" y="-549.24" font-family="Arial" font-weight="bold" font-size="10.00">74.9…197.0 MW</text>
</a>
</g>
</g>
<!-- bus_9&#45;&gt;dem_3 -->
<g id="edge6" class="edge">
<title>bus_9&#45;&gt;dem_3</title>
<path fill="none" stroke="#c0392b" stroke-width="1.5" d="M324.38,-424C288.95,-483.4 279.28,-500.71 272.37,-525.19"/>
<polygon fill="#c0392b" stroke="#c0392b" stroke-width="1.5" points="268.94,-524.47 269.81,-535.03 275.72,-526.24 268.94,-524.47"/>
</g>
<!-- agg_type_b1_thermal -->
<g id="node10" class="node">
<title>agg_type_b1_thermal</title>
<g id="a_node10"><a xlink:title="Thermal at b1: 1 units, 250 MW">
<polygon fill="#fef9e7" stroke="transparent" points="407.69,-4 407.69,-38 503.69,-38 503.69,-4 407.69,-4"/>
<polygon fill="none" stroke="#e67e22" points="407.69,-4 407.69,-38 503.69,-38 503.69,-4 407.69,-4"/>
<text text-anchor="start" x="414.69" y="-24" font-family="Arial" font-weight="bold" font-size="10.00">⚡ Thermal @ b1</text>
<text text-anchor="start" x="416.69" y="-14" font-family="Arial" font-weight="bold" font-size="10.00">1 units · 250 MW</text>
</a>
</g>
</g>
<!-- agg_type_b1_thermal&#45;&gt;bus_1 -->
<g id="edge1" class="edge">
<title>agg_type_b1_thermal&#45;&gt;bus_1</title>
<path fill="none" stroke="#e67e22" stroke-width="1.5" d="M463.51,-42.03C472.34,-66.81 475.47,-82.23 486.46,-147.25"/>
<polygon fill="#e67e22" stroke="#e67e22" stroke-width="1.5" points="483.02,-147.93 488.14,-157.21 489.93,-146.76 483.02,-147.93"/>
</g>
<!-- agg_type_b2_thermal -->
<g id="node11" class="node">
<title>agg_type_b2_thermal</title>
<g id="a_node11"><a xlink:title="Thermal at b2: 1 units, 300 MW">
<polygon fill="#fef9e7" stroke="transparent" points="854.1,-97.96 854.1,-131.96 950.1,-131.96 950.1,-97.96 854.1,-97.96"/>
<polygon fill="none" stroke="#e67e22" points="854.1,-97.96 854.1,-131.96 950.1,-131.96 950.1,-97.96 854.1,-97.96"/>
<text text-anchor="start" x="861.1" y="-117.96" font-family="Arial" font-weight="bold" font-size="10.00">⚡ Thermal @ b2</text>
<text text-anchor="start" x="863.1" y="-107.96" font-family="Arial" font-weight="bold" font-size="10.00">1 units · 300 MW</text>
</a>
</g>
</g>
<!-- agg_type_b2_thermal&#45;&gt;bus_2 -->
<g id="edge2" class="edge">
<title>agg_type_b2_thermal&#45;&gt;bus_2</title>
<path fill="none" stroke="#e67e22" stroke-width="1.5" d="M883.55,-136.18C870.64,-149.84 858.17,-159.33 823.23,-183.14"/>
<polygon fill="#e67e22" stroke="#e67e22" stroke-width="1.5" points="821.21,-180.28 814.91,-188.8 825.15,-186.07 821.21,-180.28"/>
</g>
<!-- agg_type_b3_thermal -->
<g id="node12" class="node">
<title>agg_type_b3_thermal</title>
<g id="a_node12"><a xlink:title="Thermal at b3: 1 units, 270 MW">
<polygon fill="#fef9e7" stroke="transparent" points="4,-311.2 4,-345.2 100,-345.2 100,-311.2 4,-311.2"/>
<polygon fill="none" stroke="#e67e22" points="4,-311.2 4,-345.2 100,-345.2 100,-311.2 4,-311.2"/>
<text text-anchor="start" x="11" y="-331.2" font-family="Arial" font-weight="bold" font-size="10.00">⚡ Thermal @ b3</text>
<text text-anchor="start" x="13" y="-321.2" font-family="Arial" font-weight="bold" font-size="10.00">1 units · 270 MW</text>
</a>
</g>
</g>
<!-- agg_type_b3_thermal&#45;&gt;bus_3 -->
<g id="edge3" class="edge">
<title>agg_type_b3_thermal&#45;&gt;bus_3</title>
<path fill="none" stroke="#e67e22" stroke-width="1.5" d="M104.04,-341.84C116.29,-343.68 132.06,-345.3 156.55,-347.52"/>
<polygon fill="#e67e22" stroke="#e67e22" stroke-width="1.5" points="156.5,-351.03 166.77,-348.44 157.12,-344.06 156.5,-351.03"/>
</g>
</g>
</svg>
