<?xml version="1.0" encoding="UTF-8" standalone="no"?>
<!DOCTYPE svg PUBLIC "-//W3C//DTD SVG 1.1//EN"
 "http://www.w3.org/Graphics/SVG/1.1/DTD/svg11.dtd">
<!-- Generated by graphviz version 2.43.0 (0)
 -->
<!-- Title: plp_min_1bus Pages: 1 -->
<svg width="183pt" height="365pt"
 viewBox="0.00 0.00 183.00 365.00" xmlns="http://www.w3.org/2000/svg" xmlns:xlink="http://www.w3.org/1999/xlink">
<g id="graph0" class="graph" transform="scale(1 1) rotate(0) translate(36 329)">
<title>plp_min_1bus</title>
<polygon fill="white" stroke="transparent" points="-36,36 -36,-329 147,-329 147,36 -36,36"/>
<text text-anchor="start" x="9.5" y="-278.8" font-family="Arial" font-weight="bold" font-size="14.00">plp_min_1bus</text>
<!-- bus_1 -->
<g id="node1" class="node">
<title>bus_1</title>
<g id="a_node1"><a xlink:title="Bus uid=1 name=Bus1&#10;1.0 kV">
<polygon fill="#d6eaf8" stroke="transparent" points="34,-118 34,-152 77,-152 77,-118 34,-118"/>
<polygon fill="none" stroke="#1a5276" points="34.5,-118 34.5,-152 77.5,-152 77.5,-118 34.5,-118"/>
<text text-anchor="start" x="43.5" y="-138" font-family="Arial" font-weight="bold" font-size="10.00">Bus1</text>
<text text-anchor="start" x="41.5" y="-128" font-family="Arial" font-weight="bold" font-size="10.00">1.0 kV</text>
</a>
</g>
</g>
<!-- dem_1 -->
<g id="node3" class="node">
<title>dem_1</title>
<g id="a_node3"><a xlink:title="Demand uid=1 name=Bus1 lmax=&quot;lmax&quot;">
<polygon fill="#fadbd8" stroke="transparent" points="22,-4 22,-38 89,-38 89,-4 22,-4"/>
<polygon fill="none" stroke="#c0392b" points="22.5,-4 22.5,-38 89.5,-38 89.5,-4 22.5,-4"/>
<text text-anchor="start" x="43.5" y="-24" font-family="Arial" font-weight="bold" font-size="10.00">Bus1</text>
<text text-anchor="start" x="29.5" y="-14" font-family="Arial" font-weight="bold" font-size="10.00">&quot;lmax&quot; MW</text>
</a>
</g>
</g>
<!-- bus_1&#45;&gt;dem_1 -->
<g id="edge2" class="edge">
<title>bus_1&#45;&gt;dem_1</title>
<path fill="none" stroke="#c0392b" stroke-width="1.5" d="M55.5,-113.8C55.5,-80.53 55.5,-65.08 55.5,-52.39"/>
<polygon fill="#c0392b" stroke="#c0392b" stroke-width="1.5" points="59,-52.04 55.5,-42.04 52,-52.04 59,-52.04"/>
</g>
<!-- gen_1 -->
<g id="node2" class="node">
<title>gen_1</title>
<g id="a_node2"><a xlink:title="Generator uid=1 type=thermal pmax=100 gcost=50">
<polygon fill="#fef9e7" stroke="transparent" points="4,-232 4,-266 107,-266 107,-232 4,-232"/>
<polygon fill="none" stroke="#e67e22" points="4.5,-232 4.5,-266 107.5,-266 107.5,-232 4.5,-232"/>
<text text-anchor="start" x="34" y="-252" font-family="Arial" font-weight="bold" font-size="10.00">Thermal1</text>
<text text-anchor="start" x="11.5" y="-242" font-family="Arial" font-weight="bold" font-size="10.00">100 MW &#160;50 $/MWh</text>
</a>
</g>
</g>
<!-- gen_1&#45;&gt;bus_1 -->
<g id="edge1" class="edge">
<title>gen_1&#45;&gt;bus_1</title>
<path fill="none" stroke="#e67e22" stroke-width="1.5" d="M55.5,-227.98C55.5,-213.51 55.5,-201.08 55.5,-166.4"/>
<polygon fill="#e67e22" stroke="#e67e22" stroke-width="1.5" points="59,-166.01 55.5,-156.01 52,-166.01 59,-166.01"/>
</g>
</g>
</svg>
