<?xml version="1.0" encoding="UTF-8" standalone="no"?>
<!DOCTYPE svg PUBLIC "-//W3C//DTD SVG 1.1//EN"
 "http://www.w3.org/Graphics/SVG/1.1/DTD/svg11.dtd">
<!-- Generated by graphviz version 2.43.0 (0)
 -->
<!-- Title: s1b Pages: 1 -->
<svg width="337pt" height="359pt"
 viewBox="0.00 0.00 337.00 359.00" xmlns="http://www.w3.org/2000/svg" xmlns:xlink="http://www.w3.org/1999/xlink">
<g id="graph0" class="graph" transform="scale(1 1) rotate(0) translate(36 323)">
<title>s1b</title>
<polygon fill="white" stroke="transparent" points="-36,36 -36,-323 301,-323 301,36 -36,36"/>
<text text-anchor="start" x="120.5" y="-272.8" font-family="Arial" font-weight="bold" font-size="14.00">s1b</text>
<!-- bus_1 -->
<g id="node1" class="node">
<title>bus_1</title>
<g id="a_node1"><a xlink:title="Bus uid=1 name=b1">
<polygon fill="#d6eaf8" stroke="transparent" points="119.5,-119.5 119.5,-144.5 145.5,-144.5 145.5,-119.5 119.5,-119.5"/>
<polygon fill="none" stroke="#1a5276" points="119.5,-119 119.5,-144 145.5,-144 145.5,-119 119.5,-119"/>
<text text-anchor="start" x="126.5" y="-130" font-family="Arial" font-weight="bold" font-size="10.00">b1</text>
</a>
</g>
</g>
<!-- dem_1 -->
<g id="node4" class="node">
<title>dem_1</title>
<g id="a_node4"><a xlink:title="Demand uid=1 name=d1 lmax=250">
<polygon fill="#fadbd8" stroke="transparent" points="107,-4 107,-38 158,-38 158,-4 107,-4"/>
<polygon fill="none" stroke="#c0392b" points="107.5,-4 107.5,-38 158.5,-38 158.5,-4 107.5,-4"/>
<text text-anchor="start" x="127" y="-24" font-family="Arial" font-weight="bold" font-size="10.00">d1</text>
<text text-anchor="start" x="114.5" y="-14" font-family="Arial" font-weight="bold" font-size="10.00">250 MW</text>
</a>
</g>
</g>
<!-- bus_1&#45;&gt;dem_1 -->
<g id="edge3" class="edge">
<title>bus_1&#45;&gt;dem_1</title>
<path fill="none" stroke="#c0392b" stroke-width="1.5" d="M132.5,-113.62C132.5,-80.35 132.5,-64.85 132.5,-52.34"/>
<polygon fill="#c0392b" stroke="#c0392b" stroke-width="1.5" points="136,-52.22 132.5,-42.22 129,-52.22 136,-52.22"/>
</g>
<!-- gen_1 -->
<g id="node2" class="node">
<title>gen_1</title>
<g id="a_node2"><a xlink:title="Generator uid=1 type=thermal pmax=200 gcost=20">
<polygon fill="#fef9e7" stroke="transparent" points="4,-226 4,-260 107,-260 107,-226 4,-226"/>
<polygon fill="none" stroke="#e67e22" points="4.5,-226 4.5,-260 107.5,-260 107.5,-226 4.5,-226"/>
<text text-anchor="start" x="50" y="-246" font-family="Arial" font-weight="bold" font-size="10.00">g1</text>
<text text-anchor="start" x="11.5" y="-236" font-family="Arial" font-weight="bold" font-size="10.00">200 MW &#160;20 $/MWh</text>
</a>
</g>
</g>
<!-- gen_1&#45;&gt;bus_1 -->
<g id="edge1" class="edge">
<title>gen_1&#45;&gt;bus_1</title>
<path fill="none" stroke="#e67e22" stroke-width="1.5" d="M70.08,-221.98C80.06,-207.6 88.82,-194.97 114,-158.67"/>
<polygon fill="#e67e22" stroke="#e67e22" stroke-width="1.5" points="117.18,-160.23 120,-150.02 111.43,-156.24 117.18,-160.23"/>
</g>
<!-- gen_2 -->
<g id="node3" class="node">
<title>gen_2</title>
<g id="a_node3"><a xlink:title="Generator uid=2 type=thermal pmax=300 gcost=40">
<polygon fill="#fef9e7" stroke="transparent" points="158,-226 158,-260 261,-260 261,-226 158,-226"/>
<polygon fill="none" stroke="#e67e22" points="158.5,-226 158.5,-260 261.5,-260 261.5,-226 158.5,-226"/>
<text text-anchor="start" x="204" y="-246" font-family="Arial" font-weight="bold" font-size="10.00">g2</text>
<text text-anchor="start" x="165.5" y="-236" font-family="Arial" font-weight="bold" font-size="10.00">300 MW &#160;40 $/MWh</text>
</a>
</g>
</g>
<!-- gen_2&#45;&gt;bus_1 -->
<g id="edge2" class="edge">
<title>gen_2&#45;&gt;bus_1</title>
<path fill="none" stroke="#e67e22" stroke-width="1.5" d="M194.92,-221.98C184.94,-207.6 176.18,-194.97 151,-158.67"/>
<polygon fill="#e67e22" stroke="#e67e22" stroke-width="1.5" points="153.57,-156.24 145,-150.02 147.82,-160.23 153.57,-156.24"/>
</g>
</g>
</svg>
